<?xml version="1.0" encoding="iso-8859-1"?>
<!-- Generator: Adobe Illustrator 19.0.0, SVG Export Plug-In . SVG Version: 6.00 Build 0)  -->
<svg version="1.1" id="Layer_1" xmlns="http://www.w3.org/2000/svg" xmlns:xlink="http://www.w3.org/1999/xlink" x="0px" y="0px"
	 viewBox="0 0 512 512" style="enable-background:new 0 0 512 512;" xml:space="preserve">
<circle style="fill:#4BB6AA;" cx="224.475" cy="251.895" r="218.439"/>
<path style="fill:#FF9E16;" d="M423.518,52.85L224.48,251.89h281.484C505.964,174.159,474.456,103.789,423.518,52.85z"/>
<path style="fill:#0055B8;" d="M484.588,359.631C456.056,428.437,401.026,483.467,332.217,512L224.48,251.89L484.588,359.631z"/>
<path style="fill:#00A8E1;" d="M476.368,251.89c0,34.154-6.812,66.713-19.129,96.412L224.478,251.89L476.368,251.89L476.368,251.89z
	"/>
<path style="fill:#0071CE;" d="M224.48,0C154.921,0,91.948,28.195,46.366,73.775L224.48,251.89L402.591,73.775
	C357.009,28.195,294.035,0,224.48,0z"/>
<g>
</g>
<g>
</g>
<g>
</g>
<g>
</g>
<g>
</g>
<g>
</g>
<g>
</g>
<g>
</g>
<g>
</g>
<g>
</g>
<g>
</g>
<g>
</g>
<g>
</g>
<g>
</g>
<g>
</g>
</svg>
