<?xml version="1.0" encoding="utf-8"?>
<!-- Generator: Adobe Illustrator 22.0.1, SVG Export Plug-In . SVG Version: 6.00 Build 0)  -->
<svg version="1.1" id="Vrstva_1" xmlns="http://www.w3.org/2000/svg" xmlns:xlink="http://www.w3.org/1999/xlink" x="0px" y="0px"
	 viewBox="0 0 36 36" style="enable-background:new 0 0 36 36;" xml:space="preserve">
<style type="text/css">
	.st0{fill:none;}
	.st1{fill:#FFFFFF;}
</style>
<path class="st0" d="M-6-6h48v48H-6V-6z"/>
<path class="st1" d="M7.3,15.6c2.9,5.7,7.5,10.3,13.2,13.2l4.4-4.4c0.5-0.5,1.3-0.7,2-0.5c2.2,0.7,4.7,1.1,7.1,1.1c1.1,0,2,0.9,2,2
	v7c0,1.1-0.9,2-2,2C15.2,36,0,20.8,0,2c0-1.1,0.9-2,2-2h7c1.1,0,2,0.9,2,2c0,2.5,0.4,4.9,1.1,7.1c0.2,0.7,0.1,1.5-0.5,2L7.3,15.6z"
	/>
</svg>
