<?xml version="1.0" encoding="utf-8"?>
<!-- Generator: Adobe Illustrator 22.0.1, SVG Export Plug-In . SVG Version: 6.00 Build 0)  -->
<svg version="1.1" id="Vrstva_1" xmlns="http://www.w3.org/2000/svg" xmlns:xlink="http://www.w3.org/1999/xlink" x="0px" y="0px"
	 viewBox="0 0 128 128" style="enable-background:new 0 0 128 128;" xml:space="preserve">
<style type="text/css">
	.st0{fill:#3EAC8F;}
</style>
<g>
	<path class="st0" d="M64,42.6c-11.8,0-21.4,9.6-21.4,21.4c0,11.8,9.6,21.4,21.4,21.4c11.8,0,21.4-9.6,21.4-21.4
		C85.4,52.2,75.8,42.6,64,42.6z M64,81.9c-9.9,0-17.9-8-17.9-17.9s8-17.9,17.9-17.9c9.9,0,17.9,8,17.9,17.9S73.9,81.9,64,81.9z"/>
	<path class="st0" d="M64,50.6c-7.4,0-13.4,6-13.4,13.4c0,7.4,6,13.4,13.4,13.4s13.4-6,13.4-13.4C77.4,56.6,71.4,50.6,64,50.6z
		 M64,73.9c-5.4,0-9.9-4.4-9.9-9.9c0-5.4,4.4-9.9,9.9-9.9c5.4,0,9.9,4.4,9.9,9.9C73.9,69.4,69.4,73.9,64,73.9z"/>
	<path class="st0" d="M62.2,20.7v10.2l-3.4-3.4c-0.7-0.7-1.8-0.7-2.5,0c-0.7,0.7-0.7,1.8,0,2.5l6.4,6.4c0.3,0.3,0.8,0.5,1.2,0.5
		c0.4,0,0.9-0.2,1.2-0.5l6.4-6.4c0.7-0.7,0.7-1.8,0-2.5c-0.7-0.7-1.8-0.7-2.5,0l-3.5,3.4V20.7c4.9-0.8,8.7-5.1,8.7-10.3
		C74.4,4.7,69.8,0,64,0c-5.8,0-10.4,4.7-10.4,10.4C53.6,15.6,57.3,19.9,62.2,20.7z M64,3.5c3.8,0,6.9,3.1,6.9,6.9
		c0,3.8-3.1,6.9-6.9,6.9c-3.8,0-6.9-3.1-6.9-6.9C57.1,6.6,60.2,3.5,64,3.5z"/>
	<path class="st0" d="M65.7,107.3V97.1l3.5,3.4c0.3,0.3,0.8,0.5,1.2,0.5c0.4,0,0.9-0.2,1.2-0.5c0.7-0.7,0.7-1.8,0-2.5l-6.4-6.4
		c-0.7-0.7-1.8-0.7-2.5,0l-6.4,6.4c-0.7,0.7-0.7,1.8,0,2.5c0.7,0.7,1.8,0.7,2.5,0l3.4-3.4v10.2c-4.9,0.8-8.7,5.1-8.7,10.3
		c0,5.8,4.7,10.4,10.4,10.4c5.8,0,10.4-4.7,10.4-10.4C74.4,112.4,70.7,108.1,65.7,107.3z M64,124.5c-3.8,0-6.9-3.1-6.9-6.9
		c0-3.8,3.1-6.9,6.9-6.9c3.8,0,6.9,3.1,6.9,6.9C70.9,121.4,67.8,124.5,64,124.5z"/>
	<path class="st0" d="M117.6,53.6c-5.2,0-9.4,3.8-10.3,8.7H97.1l3.4-3.4c0.7-0.7,0.7-1.8,0-2.5c-0.7-0.7-1.8-0.7-2.5,0l-6.4,6.4
		c-0.7,0.7-0.7,1.8,0,2.5l6.4,6.4c0.3,0.3,0.8,0.5,1.2,0.5c0.4,0,0.9-0.2,1.2-0.5c0.7-0.7,0.7-1.8,0-2.5l-3.5-3.5h10.2
		c0.8,4.9,5.1,8.7,10.3,8.7c5.8,0,10.4-4.7,10.4-10.4C128,58.2,123.3,53.6,117.6,53.6z M117.6,70.9c-3.8,0-6.9-3.1-6.9-6.9
		c0-3.8,3.1-6.9,6.9-6.9c3.8,0,6.9,3.1,6.9,6.9C124.5,67.8,121.4,70.9,117.6,70.9z"/>
	<path class="st0" d="M20.7,65.7h10.2l-3.5,3.5c-0.7,0.7-0.7,1.8,0,2.5c0.3,0.3,0.8,0.5,1.2,0.5c0.4,0,0.9-0.2,1.2-0.5l6.4-6.4
		c0.7-0.7,0.7-1.8,0-2.5l-6.4-6.4c-0.7-0.7-1.8-0.7-2.5,0c-0.7,0.7-0.7,1.8,0,2.5l3.4,3.4H20.7c-0.8-4.9-5.1-8.7-10.3-8.7
		C4.7,53.6,0,58.2,0,64c0,5.8,4.7,10.4,10.4,10.4C15.6,74.4,19.9,70.7,20.7,65.7z M10.4,70.9c-3.8,0-6.9-3.1-6.9-6.9
		c0-3.8,3.1-6.9,6.9-6.9c3.8,0,6.9,3.1,6.9,6.8c0,0,0,0.1,0,0.1c0,0,0,0.1,0,0.1C17.3,67.9,14.2,70.9,10.4,70.9z"/>
	<path class="st0" d="M95.8,93.4l-7.2-7.2h4.8c1,0,1.8-0.8,1.8-1.8s-0.8-1.8-1.8-1.8h-9.1c-1,0-1.8,0.8-1.8,1.8v9.1
		c0,1,0.8,1.8,1.8,1.8s1.8-0.8,1.8-1.8v-4.9l7.2,7.2c-1.3,1.8-1.9,3.8-1.9,6c0,2.8,1.1,5.4,3.1,7.4c2,2,4.7,3.1,7.4,3.1
		c2.7,0,5.3-1,7.4-3.1c2-2,3.1-4.6,3.1-7.4c0-2.8-1.1-5.4-3.1-7.4C105.6,90.8,99.9,90.5,95.8,93.4z M106.8,106.8
		c-2.7,2.7-7.1,2.7-9.8,0c-1.3-1.3-2-3.1-2-4.9c0-1.9,0.7-3.6,2-4.9c2.7-2.7,7.1-2.7,9.8,0c1.3,1.3,2,3.1,2,4.9
		C108.8,103.7,108.1,105.5,106.8,106.8z"/>
	<path class="st0" d="M26.1,36.6c2.1,0,4.2-0.7,6-1.9l7.2,7.2h-4.9c-1,0-1.8,0.8-1.8,1.8s0.8,1.8,1.8,1.8h9.1c1,0,1.8-0.8,1.8-1.8
		v-9.1c0-1-0.8-1.8-1.8-1.8s-1.8,0.8-1.8,1.8v4.8l-7.2-7.2c1.2-1.8,1.9-3.8,1.9-6c0-2.8-1.1-5.4-3.1-7.4c-4.1-4.1-10.7-4.1-14.8,0
		c-2,2-3.1,4.6-3.1,7.4c0,2.8,1.1,5.4,3.1,7.4C20.8,35.5,23.5,36.6,26.1,36.6z M21.2,21.2c1.4-1.4,3.1-2,4.9-2c1.8,0,3.6,0.7,4.9,2
		c1.3,1.3,2,3.1,2,4.9c0,1.8-0.7,3.5-2,4.8c0,0,0,0-0.1,0c0,0,0,0,0,0.1c-2.7,2.7-7.1,2.6-9.8,0c-1.3-1.3-2-3.1-2-4.9
		C19.2,24.3,19.9,22.5,21.2,21.2z"/>
	<path class="st0" d="M84.4,45.3h9.1c1,0,1.8-0.8,1.8-1.8s-0.8-1.8-1.8-1.8h-4.9l7.2-7.2c1.8,1.3,3.9,1.9,6.1,1.9
		c2.7,0,5.3-1,7.4-3.1c2-2,3.1-4.6,3.1-7.4c0-2.8-1.1-5.4-3.1-7.4c-4.1-4.1-10.7-4.1-14.8,0c-2,2-3.1,4.6-3.1,7.4
		c0,2.2,0.7,4.3,1.9,6l-7.2,7.2v-4.8c0-1-0.8-1.8-1.8-1.8s-1.8,0.8-1.8,1.8v9.1C82.7,44.5,83.4,45.3,84.4,45.3z M97,21.2
		c1.4-1.4,3.1-2,4.9-2c1.8,0,3.6,0.7,4.9,2c1.3,1.3,2,3.1,2,4.9c0,1.9-0.7,3.6-2,4.9c-2.7,2.7-7.1,2.7-9.8,0c-1.3-1.3-2-3.1-2-4.9
		C94.9,24.3,95.7,22.5,97,21.2z"/>
	<path class="st0" d="M43.6,82.7h-9.1c-1,0-1.8,0.8-1.8,1.8s0.8,1.8,1.8,1.8h4.8l-7.2,7.2c-4.1-2.9-9.7-2.5-13.4,1.1
		c-2,2-3.1,4.6-3.1,7.4c0,2.8,1.1,5.4,3.1,7.4c2,2,4.7,3.1,7.4,3.1c2.7,0,5.3-1,7.4-3.1c2-2,3.1-4.6,3.1-7.4c0-2.2-0.7-4.3-1.9-6.1
		l7.2-7.2v4.9c0,1,0.8,1.8,1.8,1.8s1.8-0.8,1.8-1.8v-9.1C45.3,83.5,44.5,82.7,43.6,82.7z M31,106.8c-2.7,2.7-7.1,2.7-9.8,0
		c-1.3-1.3-2-3.1-2-4.9c0-1.9,0.7-3.6,2-4.9c1.4-1.4,3.1-2,4.9-2c1.7,0,3.5,0.7,4.8,2c0,0,0,0,0,0c0,0,0,0,0.1,0.1
		c1.3,1.3,2,3,2,4.9C33.1,103.7,32.3,105.5,31,106.8z"/>
</g>
</svg>
