<?xml version="1.0" encoding="utf-8"?>
<!-- Generator: Adobe Illustrator 22.0.1, SVG Export Plug-In . SVG Version: 6.00 Build 0)  -->
<svg version="1.1" id="Layer_1" xmlns="http://www.w3.org/2000/svg" xmlns:xlink="http://www.w3.org/1999/xlink" x="0px" y="0px"
	 viewBox="0 0 416 256" style="enable-background:new 0 0 416 256;" xml:space="preserve">
<style type="text/css">
	.st0{fill:#FFFFFF;}
</style>
<g>
	<path class="st0" d="M19,20.7c11,5.8,163.8,89.1,169.5,92.1s11.5,4.4,20.5,4.4s14.8-1.4,20.5-4.4S388,26.5,399,20.7
		c4.1-2.1,11-5.9,12.5-10.2C414.1,2.9,411.3,0,400.2,0H209H17.8C6.7,0,3.9,3,6.5,10.5C8,14.9,14.9,18.6,19,20.7z"/>
	<path class="st0" d="M407.7,25.2c-8.2,4.2-81.8,56.6-130.5,88.1l82.2,92.5c2,2,2.9,4.4,1.8,5.6c-1.2,1.1-3.8,0.5-5.9-1.4
		l-98.6-83.2c-14.9,9.6-25.4,16.2-27.2,17.2c-7.7,3.9-13.1,4.4-20.5,4.4s-12.8-0.5-20.5-4.4c-1.9-1-12.3-7.6-27.2-17.2L62.7,210
		c-2,2-4.7,2.6-5.9,1.4c-1.2-1.1-0.3-3.6,1.7-5.6l82.1-92.5C91.9,81.8,17.5,29.4,9.3,25.2C0.5,20.7,0,26,0,30.1c0,4.1,0,205,0,205
		c0,9.3,13.7,20.9,23.5,20.9H209h185.5c9.8,0,21.5-11.7,21.5-20.9c0,0,0-201,0-205C416,25.9,416.6,20.7,407.7,25.2z"/>
</g>
</svg>
