<?xml version="1.0" ?>
<svg viewBox="0 0 512 512" xmlns="http://www.w3.org/2000/svg">
    <path fill="#10ac8f" d="M442,286.78h-5V114.07a35,35,0,0,0-35-35H98.52a35,35,0,0,0-35,35V325.59a35,35,0,0,0,35,35H219.8v59.38h-46a6.48,6.48,0,1,0,0,12.95h153a6.48,6.48,0,0,0,0-12.95h-46V360.56h58.9v20.55a6.48,6.48,0,0,0,6.48,6.47H442a6.48,6.48,0,0,0,6.48-6.47V293.25A6.47,6.47,0,0,0,442,286.78Zm-18.26,0H364.35V263a22.07,22.07,0,0,1,22-22h15.28a22.07,22.07,0,0,1,22,22Zm-156,133.16h-35V360.56h35Zm6.48-72.33H98.52a22,22,0,0,1-22-22v-11H339.61v33Zm65.38-54.36v8.37H76.5V114.07a22,22,0,0,1,22-22H402a22,22,0,0,1,22,22v122.2A34.66,34.66,0,0,0,401.67,228H386.39a35,35,0,0,0-35,35v23.8h-5.31A6.47,6.47,0,0,0,339.61,293.25Zm95.89,81.38H352.56v-74.9H435.5Z"/>
    <path fill="#10ac8f" d="M394,309a19.85,19.85,0,0,0-6.47,38.64v17.62a6.48,6.48,0,0,0,12.95,0V347.61A19.85,19.85,0,0,0,394,309Zm0,26.87a7,7,0,1,1,7-7A7,7,0,0,1,394,335.84Z"/>
    <path fill="#10ac8f" d="M221.66,120H116a6.48,6.48,0,1,0,0,12.95H221.66a6.48,6.48,0,0,0,0-12.95Z"/>
    <path fill="#10ac8f" d="M116,164.17h10.23a6.48,6.48,0,1,0,0-12.95H116a6.48,6.48,0,1,0,0,12.95Z"/>
    <path fill="#10ac8f" d="M198.6,151.22H148.38a6.48,6.48,0,0,0,0,12.95H198.6a6.48,6.48,0,1,0,0-12.95Z"/>
    <path fill="#10ac8f" d="M146.7,182.47H116a6.48,6.48,0,1,0,0,12.95H146.7a6.48,6.48,0,1,0,0-12.95Z"/>
</svg>