<?xml version="1.0" encoding="utf-8"?>
<!-- Generator: Adobe Illustrator 22.0.1, SVG Export Plug-In . SVG Version: 6.00 Build 0)  -->
<svg version="1.1" id="Vrstva_1" xmlns="http://www.w3.org/2000/svg" xmlns:xlink="http://www.w3.org/1999/xlink" x="0px" y="0px"
	 viewBox="0 0 305.6 295.2" style="enable-background:new 0 0 305.6 295.2;" xml:space="preserve">
<style type="text/css">
	.st0{fill:#F6F6F6;}
</style>
<path class="st0" d="M271.8,39.7c-14.4-16.3-35.6-26.6-60.7-27.6c-1.4-0.1-2.9-0.1-4.4-0.1s-3,0-4.4,0.1H202h-75.5l-81,70.7
	l-11.6,66.5h67.4l-10,57l-0.4,2.1c-1.3,7.4-10.8,5.8-10.8,5.8H34.7c-6.7,0.2-12.4,5.1-13.7,11.7l-7.8,44.7
	c-1.1,6.5,3.2,11.7,9.7,11.7h44.7c6.7-0.2,12.4-5.1,13.8-11.7l7.8-44.7c1.7-9.7,12.5-9.6,12.5-9.6h68.2l0,0c0.4,0,0.8,0,1.2,0
	c56.4,0,110.1-45.7,120-102.1C296.1,84.8,288.4,58.3,271.8,39.7z M217.9,137.5c-7.7,6.6-17.5,10.6-27.5,10.6h-87.7l12.7-72.6h87.7
	c20,0,33.4,16.3,29.9,36.3C231.1,121.9,225.8,130.9,217.9,137.5z"/>
</svg>
