<?xml version="1.0" encoding="utf-8"?>
<!-- Generator: Adobe Illustrator 22.0.1, SVG Export Plug-In . SVG Version: 6.00 Build 0)  -->
<svg version="1.1" id="Vrstva_1" xmlns="http://www.w3.org/2000/svg" xmlns:xlink="http://www.w3.org/1999/xlink" x="0px" y="0px"
	 viewBox="0 0 1000 1000" style="enable-background:new 0 0 1000 1000;" xml:space="preserve">
<style type="text/css">
	.st0{fill:#FFFFFF;}
	.st1{fill:#EBF0F6;}
	.st2{fill:#10AC8F;}
	.st3{fill:#1C3E58;}
</style>
<g id="background">
	<g>
		<rect class="st0" width="1000" height="1000"/>
	</g>
</g>
<g id="illustration">
	<g>
		<g>
			<path class="st1" d="M159.1,804.1L222,840c4.8,2.8,12.6,2.8,17.4,0c4.8-2.7,4.8-7.2,0-10l-29.8-16.8l-12.3,4.2l-12-18.2l-8.9-5.1
				c-4.8-2.8-12.6-2.8-17.4,0C154.2,796.8,154.2,801.3,159.1,804.1z"/>
		</g>
		<g>
			<path class="st1" d="M284.3,837.6c0,5.9,4.8,10.8,10.8,10.8c3.1,0,5.8-1.3,7.8-3.3c-0.8,0.2-1.6,0.3-2.4,0.3
				c-5.9,0-10.8-4.8-10.8-10.8c0-2.9,1.1-5.6,3-7.5C287.8,828.2,284.2,832.5,284.3,837.6z"/>
		</g>
		<g>
			<polygon class="st1" points="263.7,788 271.1,792 269.9,793.1 267.7,795.9 268.4,798.8 291.3,812.3 293.8,825.7 289.2,833.3 
				286.5,817.3 251,796.9 			"/>
		</g>
		<g>
			<polygon class="st1" points="321.3,834.4 312.4,827 306.5,819.4 305.9,812.6 298.1,808.2 300.4,822.7 301.6,824.2 321.6,837.1 
							"/>
		</g>
		<g>
			<path class="st1" d="M482.5,780.2L445,802.8l-4.3,6.8l-6.4,6.5l0.9,2.3c1.4-1.1,7.3,2.2,7.3,2.2l48.3-28.6
				c4.8-2.8,5.1-9.5,0.7-12.8l-5.2-3.9L482.5,780.2z"/>
		</g>
		<g>
			<polygon class="st1" points="696.7,888.3 690.2,889.8 557.8,814.9 549.8,807 539.7,813.9 693.7,905.2 714.8,890.6 702.4,882.5 
							"/>
		</g>
		<g>
			<path class="st1" d="M545.8,744.7l-36.9-23l-10.4,7.1c-3.1,2.1-2.9,6.7,0.4,8.5l46.9,26.2V744.7z"/>
		</g>
		<g>
			<path class="st1" d="M865.4,783.7l-119.7,69.9h-10.1L702.4,835v18.5l24.5,14.4c8.3,4.9,18.7,5,27,0.1l124.2-71.1
				c3.8-2.3,3.8-7.8,0-10l-9-5.4L865.4,783.7z"/>
		</g>
		<g>
			<path class="st1" d="M362.2,602.5l-29,17.9l-8.4,0.8L195,545.6l-4-5.4l-3.4,2c-7,4-6.9,14.1,0,18.1l129.3,75.3
				c8.2,4.8,18.4,4.6,26.4-0.6l34.7-22.5L362.2,602.5z"/>
		</g>
		<g>
			<polygon class="st1" points="549,545 544.2,550.2 423.9,619.6 358.7,580.5 358.7,600.1 356.8,604 424,643.4 573.5,554.8 
				551.6,540.6 			"/>
		</g>
		<g>
			<polygon class="st1" points="813.3,630.2 773.1,654.2 768.3,656 763.8,656 618.1,571 617.4,569.4 607.8,576 768.5,669.2 
				824.3,634.2 815.2,627.9 			"/>
		</g>
		<g>
			<g>
				<path class="st2" d="M411.2,378.3c-0.5,3.7,4.4,14.5,4.4,14.5l-2.7,17.1l19,11l-1.1-8.3l-10-5.8l2.8-17.6
					c-2.7-3.9-4.5-8.7-4.5-12.9c0-1.7,0.3-3.2,0.8-4.4C419.9,371.9,412.5,368.7,411.2,378.3z"/>
			</g>
			<g>
				<g>
					<path class="st3" d="M459,454.5c0,0,20.3-11.6,29-16.6s13.5-15.6,13.5-29.9v-46.4h2.5V408c0,15.3-5.2,26.7-14.7,32.1
						c-8.7,5-29,16.6-29,16.6L459,454.5z"/>
				</g>
				<g>
					<path class="st3" d="M425.7,452.8l-8.1-4.6c-26.9-15.5-48.7-53.2-48.7-84.1v-46c0-0.5,0.2-0.9,0.6-1.1c0.4-0.2,0.9-0.2,1.3,0
						L475,377.1c0.4,0.2,0.6,0.7,0.6,1.1v46c0,15.2-5.2,26.6-14.6,32c-3.9,2.3-8.3,3.4-13.1,3.4
						C441.1,459.6,433.5,457.3,425.7,452.8z M371.5,320.4v43.8c0,30.1,21.3,66.8,47.4,81.9l8.1,4.6c12.5,7.2,24.1,8.4,32.8,3.4
						s13.4-15.6,13.4-29.8V379L371.5,320.4z"/>
				</g>
				<g>
					
						<rect x="436.7" y="295.4" transform="matrix(0.4995 -0.8663 0.8663 0.4995 -61.8271 541.7748)" class="st3" width="2.5" height="58"/>
				</g>
				<g>
					<path class="st3" d="M474,379.4l-104.4-60.2c-0.4-0.2-0.6-0.7-0.6-1.1c0-0.5,0.2-0.9,0.6-1.1l27.8-15.9l1.2,2.2l-25.9,14.8
						l101.9,58.7l25.7-15L477,348.4l1.2-2.2l25.1,14.5c0.4,0.2,0.6,0.7,0.6,1.1c0,0.5-0.2,0.9-0.6,1.1l-28.1,16.4
						c-0.2,0.1-0.4,0.2-0.6,0.2C474.4,379.5,474.2,379.4,474,379.4z"/>
				</g>
				<g>
					<path class="st2" d="M431.5,421.7l-19-11c-0.3-0.2-0.4-0.5-0.4-0.8l2.8-17.3c-2.9-4.2-4.5-8.9-4.5-13.1c0-3.8,1.3-6.5,3.6-7.9
						c2.4-1.4,5.5-1.1,8.7,0.8c6.4,3.7,11.6,12.7,11.6,20c0,4.1-1.6,7.1-4.4,8.2l2.7,20.2c0.1,0.3-0.1,0.5-0.3,0.7
						c-0.1,0.1-0.3,0.1-0.4,0.1C431.8,421.6,431.7,421.5,431.5,421.7z M414.8,372.8c-1.9,1.1-2.9,3.4-2.9,6.6
						c0,3.9,1.7,8.6,4.4,12.5c0.1,0.1,0.1,0.3,0.1,0.5l-2.7,17.1l17.2,9.9l-2.6-19.3c-0.1-0.3,0.1-0.7,0.5-0.8c2.6-0.7,4-3.3,4-7
						c0-6.9-4.8-15.3-10.8-18.7c-1.6-0.9-3.2-1.4-4.6-1.4C416.5,372.2,415.6,372.4,414.8,372.8z"/>
				</g>
				<g>
					<g>
						<path class="st2" d="M398.2,326.2c-2.4-1.4-3.7-3.1-3.7-5c0-1.7,1.1-3.3,3.2-4.5l0.8,1.3c-1.6,0.9-2.4,2-2.4,3.2
							c0,1.3,1,2.6,2.9,3.7c3.8,2.2,10.1,2.2,13.9,0c1.7-1,2.6-2.3,2.6-3.6c0-1.4-1.1-2.8-3.1-3.9l0.7-1.3c2.5,1.3,3.9,3.2,3.9,5.2
							c0.1,1.9-1.2,3.7-3.3,4.9c-2.1,1.2-4.9,1.8-7.7,1.8S400.4,327.4,398.2,326.2z"/>
					</g>
					<g>
						<path class="st2" d="M462.9,364.2c-2.2-1.3-3.4-3-3.4-4.9s1.2-3.6,3.4-4.9l0.8,1.3c-1.8,1-2.7,2.3-2.7,3.6
							c0,1.3,1,2.6,2.7,3.6c3.8,2.2,10.1,2.2,13.9,0c1.8-1,2.7-2.3,2.7-3.6c0-1.3-1-2.6-2.7-3.6l0.8-1.3c2.2,1.3,3.4,3,3.4,4.9
							s-1.2,3.6-3.4,4.9c-2.1,1.2-4.9,1.8-7.7,1.8S465.1,365.3,462.9,364.2z"/>
					</g>
					<g>
						<path class="st3" d="M466.8,362.5c-3.8-1.1-5-3.3-4.8-4.9v-25.5c0-17.7-13-40.1-28.4-49c-6-3.5-11.4-4.3-14.9-2.3
							c-3.4,1.9-5.4,7-5.4,13.8v21.5c0,2.2,0,3.4-0.1,4h0.1c0,2-1.8,3.7-4.7,4.5c-2.2,0.6-4.6,0.6-6.8,0c-2.9-0.8-4.6-2.5-4.7-4.5
							l0.1-25.5c0-13,4.8-22.9,13.5-27.9c8.8-5,19.8-4.2,31.1,2.3c20.5,11.9,36.5,39.6,36.5,63.1v21.5c0,2.1,0,3.2-0.1,3.9h0.1
							c0.2,1.6-1,3.8-4.8,4.9c-1,0.3-2.1,0.4-3.2,0.4S468.1,362.6,466.8,362.5z M477,331.9h0.8H477c0-23.1-15.7-50.2-35.7-61.8
							c-10.8-6.3-21.3-7.1-29.6-2.3c-8.2,4.8-12.7,14.2-12.7,26.6l-0.1,25.4c0,1.3,1.4,2.5,3.6,3.1c1.9,0.6,4,0.6,5.9,0
							c2.2-0.6,3.6-1.8,3.6-3.1c0-0.7,0-16.9,0-25.4c0-7.3,2.3-12.8,6.2-15.1c3.9-2.3,9.9-1.4,16.4,2.3
							c15.8,9.1,29.2,32.2,29.2,50.3v25.6c-0.2,1.3,1.3,2.6,3.7,3.3c1.8,0.5,3.8,0.5,5.6,0c2.5-0.6,3.9-1.9,3.8-3.3v-0.1
							C476.9,356.7,476.9,340.5,477,331.9z"/>
					</g>
				</g>
			</g>
		</g>
		<g>
			<g>
				<g>
					<path class="st2" d="M628,395.6c0,5.4,1.5,11.3,4,16.9c6.2,7.1,13.3,13.9,20.8,18.2c5,2.9,9.7,4.5,14.1,5.2
						c3.8-2.5,6.2-7.4,6.2-14.3c0-5.4-1.4-11.3-3.9-16.9c-6.2-7.1-13.3-13.9-20.8-18.2c-5-2.9-9.7-4.5-14.1-5.2
						C630.5,383.7,628.1,388.6,628,395.6z"/>
					<path class="st2" d="M666.9,436.6c-4.9-0.8-9.7-2.6-14.4-5.3c-6.7-3.9-13.8-10.1-21-18.4c0-0.1-0.1-0.1-0.1-0.2
						c-2.6-5.9-4-11.8-4-17.2c0-6.9,2.4-12.2,6.6-14.9c0.1-0.1,0.3-0.1,0.5-0.1c4.9,0.8,9.7,2.6,14.4,5.3c6.7,3.9,13.8,10.1,21,18.4
						c0,0.1,0.1,0.1,0.1,0.2c2.6,5.9,4,11.8,4,17.2c0,6.9-2.4,12.2-6.6,14.9c-0.1,0.1-0.3,0.1-0.4,0.1
						C666.9,436.6,666.9,436.6,666.9,436.6z M648,387.1c-4.4-2.5-9-4.2-13.6-5c-3.6,2.5-5.6,7.2-5.6,13.5c0,5.1,1.3,10.8,3.8,16.5
						c7.1,8.2,14,14.2,20.6,18c4.4,2.5,9,4.2,13.6,5c3.6-2.5,5.6-7.2,5.6-13.5c0-5.1-1.3-10.8-3.8-16.5
						C661.5,396.9,654.6,390.9,648,387.1z"/>
				</g>
				<g>
					<path class="st2" d="M631.4,413.1c-9.3-10.8-16.5-22.2-19.9-28.1c-0.1-0.2-0.2-0.4-0.1-0.6c0.1-0.2,0.2-0.4,0.4-0.5
						c4-1.9,12.3-5,22.6-3.3c0.3,0.1,0.5,0.3,0.6,0.6c0.1,0.3,0,0.6-0.3,0.8c-3.8,2.4-5.9,7.2-5.9,13.6c0,5.1,1.4,10.9,3.9,16.6
						c0.1,0.3,0,0.7-0.3,0.9c-0.1,0.1-0.3,0.1-0.4,0.1C631.8,413.2,631.6,413.1,631.4,413.1z M613.2,385c3.1,5.3,8.9,14.5,16.4,23.6
						c-1.5-4.5-2.3-8.9-2.3-13c0-6.1,1.8-10.9,5.1-13.8C623.9,380.8,617,383.1,613.2,385z"/>
				</g>
				<g>
					<path class="st2" d="M648.1,439c-25.5-14.7-45.6-52-46.4-53.6l-1.8-3.4c-0.2-0.4-0.1-0.8,0.2-1l3.1-2.3c1-0.7,23-16.3,50.1-0.6
						c25.5,14.7,45.6,52,46.4,53.6l1.8,3.4c0.2,0.4,0.1,0.8-0.2,1l-3.1,2.3c-0.5,0.3-10.6,7.5-25.3,7.5
						C664.4,445.9,656.1,443.6,648.1,439z M698.3,432.5c-0.9-1.6-20.7-38.6-45.9-53.1c-26.3-15.2-47.5-0.1-48.4,0.5l-2.6,1.9
						l1.5,2.8c0.9,1.6,20.7,38.6,45.9,53.1c7.7,4.5,15.8,6.8,24,6.8c14.3,0,24-7,24.4-7.3l2.6-1.9L698.3,432.5z M666.9,436.5
						l0.2-1.5c9.3,1.5,16.8-0.9,20.9-2.8c-3.5-6-10.4-16.9-19.3-27.1l1.1-1c9.3,10.8,16.5,22.2,19.9,28.1c0.1,0.2,0.2,0.4,0.1,0.6
						c-0.1,0.2-0.2,0.4-0.4,0.5c-3.1,1.6-9,3.8-16.5,3.8C671,437.1,669,436.9,666.9,436.5z M611.4,384.9c-0.1-0.2-0.2-0.4-0.1-0.6
						c0.1-0.2,0.2-0.4,0.4-0.5c4-1.9,12.3-5,22.6-3.3l-0.2,1.5c-9.3-1.6-16.8,0.9-20.9,2.8c3.6,6,10.5,16.9,19.4,27.1l-1.1,1
						C622.1,402.2,615,390.8,611.4,384.9z"/>
				</g>
			</g>
			<g>
				<g>
					<g>
						<g>
							<g>
								
									<rect x="729.8" y="136.1" transform="matrix(0.5026 -0.8645 0.8645 0.5026 98.6267 783.8774)" class="st2" width="1.5" height="340.2"/>
							</g>
							<g>
								<g>
									
										<rect id="SVGID_2_" x="729.8" y="345.5" transform="matrix(0.5026 -0.8645 0.8645 0.5026 -82.3897 888.0621)" class="st2" width="1.5" height="340.3"/>
								</g>
								<g>
									<defs>
										
											<rect id="SVGID_1_" x="729.8" y="136.1" transform="matrix(0.5026 -0.8645 0.8645 0.5026 98.6267 783.8774)" width="1.5" height="340.2"/>
									</defs>
									<clipPath id="SVGID_3_">
										<use xlink:href="#SVGID_1_"  style="overflow:visible;"/>
									</clipPath>
								</g>
							</g>
						</g>
						<g>
							<g>
								<path class="st3" d="M761.1,645.8l-141.6-82.3c-2.3-1.6-2.7-3.1-2.7-4.1c0-0.9,0.5-2.3,2.7-3.5l42.6-25c3.6-2,8-2.1,11.5,0
									l26.7,15.5l-0.8,1.3l-26.8-15.6c-3-1.8-6.8-1.8-9.9,0l-42.6,25c-0.9,0.5-2,1.3-2,2.3c0,0.9,0.7,1.8,2,2.7l141.6,82.3
									c3,1.7,6.6,1.7,9.5,0l41-24.1c1.2-0.8,2-2.1,2-3.6c0-1.4-0.7-2.8-2-3.5l-51.5-29.9l0.8-1.3l51.5,29.9c1.8,1,2.8,2.8,2.8,4.8
									c0,2.1-1.1,3.9-2.8,4.9l-41,24.1c-1.7,1-3.6,1.5-5.5,1.5S762.8,646.7,761.1,645.8z"/>
							</g>
						</g>
						<g>
							<path class="st3" d="M762.9,656c-0.6-0.3-1.2-0.6-1.8-0.9l-142.3-82.7c-1.4-0.8-2.3-2.3-2.2-4l0.3-8.8h1.5l-0.3,8.9
								c-0.1,1.1,0.4,2.1,1.4,2.7l142,82.9c0.6,0.4,1.1,0.6,1.6,0.8c2.2,0.7,4.6,0.7,6.8-0.1c0.1-0.1,0.2-0.2,0.3-0.2
								c0.4-0.2,0.7-0.3,1-0.5l41.3-24.2c1-0.6,2.1-1.8,2.1-3.5c0-3.5-0.2-8.7-0.2-9l0.7-0.1v-0.8c0.8,0,0.8,0,0.9,5.2l0.1,4.5
								c0,2.3-1.4,4-2.8,4.8L772,655.3c-0.3,0.1-0.5,0.3-0.8,0.4c-0.1,0.1-0.2,0.1-0.3,0.2c-1.3,0.5-2.8,0.8-4.3,0.8
								C765.3,656.7,764.1,656.5,762.9,656z"/>
						</g>
						<g>
							<g>
								<path class="st3" d="M744.6,601.5l-46.5-26.8c-0.1,0-0.1-0.1-0.2-0.1c-0.7-0.4-1.3-0.8-1.2-2.4l3.2-39l1.5,0.1l-3.2,39
									c0,0.7,0,0.7,0.4,0.9c0.1,0.1,0.2,0.1,0.3,0.2l46.5,26.8c0.2,0.2,0.6,0.2,1,0.2c0.5,0,0.9-0.1,1.2-0.3l13-7.5
									c0.2-0.1,0.3-0.3,0.3-0.3c-0.1-0.1-0.1-0.2-0.1-0.3l0.1-24.2h1.5l-0.1,24.1c0.2,0.6,0,1.4-1,2l-13,7.5
									c-0.5,0.3-1.1,0.5-1.8,0.5c-0.1,0-0.2,0-0.3,0C745.6,601.9,745.1,601.8,744.6,601.5z"/>
							</g>
						</g>
						<g>
							<g>
								<path class="st3" d="M872.8,628.3L589.6,464.8c-7.8-4.6-14.2-15.6-14.2-24.7V213.9c0-4.7,1.6-8.2,4.6-9.9s6.9-1.3,10.9,1
									l283.2,163.5c7.8,4.5,14.2,15.5,14.2,24.6v226.2c0,4.7-1.6,8.2-4.6,9.9c-1.3,0.7-2.7,1.1-4.2,1.1
									C877.4,630.3,875.2,629.6,872.8,628.3z M581.3,206.2c-2.2,1.2-3.4,4-3.4,7.7v226.2c0,8.1,6,18.4,13,22.5L874,626.1
									c3.3,1.8,6.2,2.2,8.4,0.9c2.2-1.2,3.4-4,3.4-7.7V393.1c0-8.2-6-18.4-13-22.5L589.7,207.2c-2-1.1-3.9-1.7-5.5-1.7
									C583.1,205.5,582.2,205.7,581.3,206.2z"/>
							</g>
							<g>
								<path class="st3" d="M882.8,627c5.1-2.8,12.9-7,13.7-7.5c0.1,0,0.1-0.1,0.2-0.1c2.3-1.2,3.6-4,3.6-7.9v-226
									c0-1.8-0.3-3.6-0.8-5.5c-1.5-5.5-4.8-10.9-8.9-14.6c-1.2-1-2.3-1.8-3.5-2.5l-283-163.4c-3.1-1.8-6.1-2.2-8.3-1.2l-14.4,8
									l-1.2-2.2l14.5-8.1c3-1.4,6.8-1,10.6,1.2l283,163.4c1.3,0.7,2.6,1.7,3.9,2.8c4.5,3.9,8.1,9.9,9.6,15.8
									c0.6,2,0.9,4.1,0.9,6.1v226c0,4.8-1.8,8.5-5,10.1c-0.5,0.3-1.1,0.7-2.1,1.2c-1.3,0.7-3.1,1.7-4.8,2.6
									c-3.4,1.9-6.9,3.8-6.9,3.8L882.8,627z"/>
							</g>
						</g>
					</g>
				</g>
				<g>
					<path class="st3" d="M824.3,524.9L695,450.2l0.8-1.3l128.2,74v-40.2l-127.3-73.5l0.8-1.3l127.7,73.7c0.3,0.1,0.4,0.3,0.4,0.6
						v42c0,0.2-0.2,0.5-0.4,0.6c-0.1,0.1-0.3,0.1-0.4,0.1C824.7,524.9,824.5,524.9,824.3,524.9z"/>
				</g>
				<g>
					<g>
						<path class="st2" d="M798.3,496.5c-3.7-2.1-6.7-7.3-6.7-11.5c0-2.2,0.8-3.9,2.2-4.7c1.4-0.9,3.3-0.7,5.2,0.4
							c3.7,2.1,6.7,7.3,6.7,11.5c0,2.2-0.8,3.9-2.2,4.7c-0.6,0.3-1.3,0.5-2,0.5C800.5,497.4,799.4,497.1,798.3,496.5z M794.6,481.6
							c-1,0.5-1.5,1.7-1.5,3.4c0,3.7,2.6,8.3,5.9,10.2c1.4,0.8,2.7,1,3.7,0.4c1-0.5,1.5-1.7,1.5-3.4c0-3.7-2.6-8.3-5.9-10.2
							c-0.9-0.5-1.8-0.8-2.5-0.8C795.3,481.2,794.9,481.3,794.6,481.6z"/>
					</g>
					<g>
						<path class="st2" d="M774.8,483.9c-3.7-2.1-6.7-7.3-6.7-11.5c0-2.2,0.8-3.9,2.2-4.7c1.4-0.9,3.3-0.7,5.2,0.4
							c3.7,2.1,6.7,7.3,6.7,11.5c0,2.2-0.8,3.9-2.2,4.7c-0.6,0.3-1.3,0.5-2,0.5C777,484.8,775.9,484.4,774.8,483.9z M771.2,468.8
							c-1,0.5-1.5,1.7-1.5,3.4c0,3.8,2.6,8.4,5.9,10.3c1.4,0.8,2.7,1,3.7,0.4c1-0.5,1.5-1.7,1.5-3.4c0-3.7-2.6-8.3-5.9-10.2
							c-0.9-0.5-1.8-0.8-2.5-0.8C771.9,468.5,771.5,468.6,771.2,468.8z"/>
					</g>
					<g>
						<path class="st2" d="M753.2,471.2c-3.7-2.1-6.7-7.3-6.7-11.5c0-2.2,0.8-3.9,2.2-4.7c1.4-0.9,3.3-0.7,5.2,0.4
							c3.7,2.1,6.7,7.3,6.7,11.5c0,2.2-0.8,3.9-2.2,4.7c-0.6,0.3-1.3,0.5-2,0.5C755.4,472.1,754.3,471.8,753.2,471.2z M749.5,456.4
							c-1,0.5-1.5,1.7-1.5,3.4c0,3.7,2.6,8.3,5.9,10.2c1.4,0.8,2.7,0.9,3.7,0.4s1.5-1.7,1.5-3.4c0-3.8-2.6-8.4-5.9-10.3
							c-0.9-0.5-1.8-0.8-2.5-0.8C750.2,455.9,749.8,456,749.5,456.4z"/>
					</g>
					<g>
						<path class="st2" d="M729.7,456.8c-3.7-2.1-6.7-7.3-6.7-11.5c0-2.2,0.8-3.9,2.2-4.7c1.4-0.9,3.3-0.7,5.2,0.4
							c3.7,2.1,6.7,7.3,6.7,11.5c0,2.2-0.8,3.9-2.2,4.7c-0.6,0.3-1.3,0.5-2,0.5C731.9,457.7,730.8,457.4,729.7,456.8z M726,441.9
							c-1,0.5-1.5,1.7-1.5,3.4c0,3.7,2.6,8.3,5.9,10.2c1.4,0.8,2.7,1,3.7,0.4c1-0.5,1.5-1.7,1.5-3.4c0-3.7-2.6-8.3-5.9-10.2
							c-0.9-0.5-1.8-0.8-2.5-0.8C726.8,441.5,726.3,441.6,726,441.9z"/>
					</g>
					<g>
						<path class="st0" d="M650.6,401.3c3.5,2,6.3,6.9,6.3,10.9s-2.8,5.6-6.3,3.6s-6.3-6.9-6.3-10.9S647.2,399.3,650.6,401.3z"/>
					</g>
				</g>
			</g>
		</g>
		<g>
			<g>
				<path class="st3" d="M329.5,619.9c8.8-5.1,25.5-14.8,25.9-15c0.8-0.5,1.4-1.5,1.7-2.8c0.1-0.5,0.2-1.1,0.2-1.7v-60.6
					c0-5.9-3.2-11.4-8.3-14.4l-9-5.2l1.3-2.2l9,5.2c5.9,3.4,9.6,9.8,9.6,16.6v60.6c0,0.8-0.1,1.5-0.2,2.2c-0.4,2-1.3,3.6-2.8,4.5
					c-0.2,0.2-21.6,12.6-25.9,15.1L329.5,619.9z"/>
			</g>
			<g>
				
					<rect x="190.2" y="426.7" transform="matrix(0.8629 -0.5053 0.5053 0.8629 -189.1071 158.7729)" class="st3" width="15.9" height="2.5"/>
			</g>
			<g>
				<path class="st3" d="M339.9,526.4V391.8l-120.1-69.3v4h-1.5v-5.3c0-0.2,0.2-0.5,0.4-0.6c0.3-0.1,0.6-0.1,0.8,0l121.6,70.2
					c0.3,0.1,0.4,0.3,0.4,0.6v135H340H339.9z"/>
			</g>
			<g>
				<path class="st3" d="M332.9,527.7v-132l-120.1-69.3v4h-1.5v-5.3c0-0.2,0.2-0.5,0.4-0.6c0.3-0.1,0.6-0.1,0.8,0l121.6,70.2
					c0.3,0.1,0.4,0.3,0.4,0.6v132.4H333H332.9z"/>
			</g>
			<g>
				<path class="st3" d="M325.5,400.2l-120.2-69.4v100.6h-1.5V329.5c0-0.2,0.2-0.5,0.4-0.6c0.3-0.1,0.6-0.1,0.8,0l121.6,70.2
					c0.3,0.1,0.4,0.3,0.4,0.6v135.2h-1.5V400.2z"/>
			</g>
			<g>
				<path class="st2" d="M309.7,449.4L226,401.9c-0.4-0.2-0.6-0.6-0.6-1.1v-37.3c0-0.5,0.2-0.9,0.6-1.1c0.3-0.2,0.8-0.2,1.2,0
					l83.7,47.5c0.4,0.2,0.6,0.6,0.6,1.1v37.3c0,0.5-0.2,0.9-0.6,1.1c-0.2,0.1-0.4,0.2-0.6,0.2C310,449.6,309.8,449.6,309.7,449.4z
					 M227.8,365.7v34.4l81.2,46.1v-34.4L227.8,365.7z"/>
			</g>
			<g>
				<g>
					<g>
						
							<rect x="296.7" y="489.4" transform="matrix(0.5001 -0.866 0.866 0.5001 -287.9377 509.6362)" class="st3" width="1.5" height="29.6"/>
					</g>
				</g>
				<g>
					<g>
						
							<rect x="279" y="442.4" transform="matrix(0.496 -0.8683 0.8683 0.496 -273.7936 483.6052)" class="st3" width="1.5" height="70.5"/>
					</g>
				</g>
				<g>
					<g>
						
							<rect x="267.7" y="407" transform="matrix(0.496 -0.8683 0.8683 0.496 -259.9169 462.5321)" class="st2" width="1.5" height="96.4"/>
					</g>
				</g>
				<g>
					<g>
						
							<rect x="271" y="481" transform="matrix(0.5001 -0.866 0.866 0.5001 -287.7881 479.8969)" class="st3" width="1.5" height="16.5"/>
					</g>
				</g>
			</g>
			<g>
				<path class="st3" d="M322.8,620.8l-120.2-69.3c-4.3-2.5-9.8-5.7-12.7-10.8c-2.8-5-2.8-11-2.8-15.9l0.1-85.3c0-1.9,0-4.3,1.1-6.3
					c0.9-1.6,2.4-2.8,4.1-3.1c1.9-0.3,3.1,0.2,4.5,1l25.8,14.5c4.8,2.7,10.6,6,13.8,11.4c3.5,6,3,13,2.6,19.7c-0.3,4-0.5,8.1,0,11.9
					l81.9,47.2c3.5,2.1,7.5,4.4,10.1,8.1c3.5,5.2,3.5,11.8,3.5,17.1l-0.1,52.6c0,3-0.4,7.2-3.8,8.7c-0.7,0.4-1.5,0.5-2.2,0.5
					C326.6,622.8,324.7,621.9,322.8,620.8z M192.9,432.6c-0.9,0.1-1.8,0.9-2.3,1.8c-0.8,1.5-0.8,3.4-0.8,5.1l-0.1,85.3
					c0,4.8,0,10.2,2.5,14.6c2.6,4.6,7.5,7.4,11.8,9.9l120.2,69.3c2,1.1,4,2.1,5.5,1.4c1.6-0.7,2.3-2.7,2.3-6.4l0.1-52.6
					c0-6.1-0.2-11.5-3.1-15.7c-2.2-3.2-6-5.4-9.3-7.3l-82.4-47.4c-0.3-0.2-0.5-0.5-0.6-0.9c-0.7-4.3-0.4-8.8-0.1-13.1
					c0.5-6.7,0.9-13-2.2-18.3c-2.8-4.9-8.1-7.9-12.8-10.5l-25-14l-0.9-0.5c-0.9-0.6-1.4-0.8-2.1-0.8
					C193.3,432.5,193.1,432.6,192.9,432.6z"/>
			</g>
			<g>
				<path class="st3" d="M325.9,535.4l-83.4-48.2c-0.3-0.1-0.4-0.3-0.4-0.6v-23c0-6.1-3.3-11.8-8.6-14.8l-31.8-18.2l0.8-1.3
					l31.7,18.3c5.7,3.3,9.3,9.5,9.3,16.1v22.6l82.7,47.7l15.6-9.1l-1.5-0.8l0.7-1.3l2.7,1.4c0.2,0.1,0.4,0.3,0.4,0.6
					s-0.2,0.6-0.4,0.7l-17.1,10c-0.1,0.1-0.3,0.1-0.4,0.1C326.1,535.6,326,535.6,325.9,535.4z"/>
			</g>
		</g>
		<g>
			<g>
				<g>
					<g>
						<path class="st3" d="M839.5,272.9c0.2-0.1,11.9-6.8,18.9-11c6.9-4.1,10.7-12.7,10.7-24.2c0-18.4-9.6-40.1-24.5-55.4
							c-0.1-0.1-0.2-0.2-0.2-0.4c-4.3-32.4-26.6-66.9-52.9-82.1c-14.4-8.3-27.9-9.6-37.9-3.6c-0.8,0.4-15.9,9.3-16.6,9.7l-2.4,1.4
							c-0.2,0.2-0.4,0.2-0.6,0.1c-8.3-2.9-16-2.6-21.8,0.7c-0.2,0.1-20,11.8-20,11.8l-0.8-1.3c0,0,19.8-11.7,20-11.8
							c6-3.5,14.1-3.8,22.7-0.9l2.1-1.2c0.1-0.1,15.8-9.3,16.5-9.7c10.5-6.3,24.5-5,39.4,3.6c26.6,15.4,49.1,50.2,53.6,82.9
							c15,15.5,24.7,37.6,24.7,56.2c0,12-4.1,21.1-11.5,25.5c-7,4.2-18.8,10.9-18.9,11L839.5,272.9z"/>
					</g>
					<g>
						
							<rect x="825.1" y="186.4" transform="matrix(0.8641 -0.5034 0.5034 0.8641 19.3823 446.1565)" class="st3" width="21.3" height="1.5"/>
					</g>
					<g>
						<g>
							<path class="st2" d="M765.9,205.1c-4.4-2.6-8-0.5-8,4.6c0,5.1,3.6,11.3,8,13.9c4.4,2.6,8,0.5,8-4.6S770.4,207.7,765.9,205.1z
								"/>
						</g>
						<g>
							<path class="st2" d="M796.1,196.2c1.8,2.7,1.5,6,0,6.9c-1.7,1-4.1-0.7-5.9-3.4c-14-20.9-34.5-32.7-48.5-28
								c-1.8,0.6-4.1-0.4-5.9-3.4c-1.5-2.6-1.8-6.3,0-6.9C753.7,155.3,778.2,169.5,796.1,196.2L796.1,196.2z"/>
						</g>
						<g>
							<path class="st2" d="M806.5,188.6c1.7,2.7,1.5,6,0,6.9c-1.7,1-4.1-0.7-5.9-3.4c-19.9-30.3-49.3-47.3-69.2-40
								c-1.8,0.7-4.2-0.4-5.9-3.4c-1.5-2.6-1.8-6.3,0-6.9c11.4-4.2,25.7-2.4,40.5,6.3C780.9,156.9,795,171,806.5,188.6L806.5,188.6z
								"/>
						</g>
						<g>
							<path class="st2" d="M784.9,202.5c1.8,2.7,2.8,5.8,1.5,7.5c-1,1.5-3.9,1-5.7-1.6c-9-12.9-20.5-19.5-29.5-17
								c-1.8,0.6-4.6-2.3-5.7-5c-1.2-3.2-0.3-5.3,1.5-5.8C758.1,177.5,773.8,186.5,784.9,202.5L784.9,202.5z"/>
						</g>
					</g>
					<g>
						<path class="st3" d="M811.7,271.8L723,220.6c-23.9-13.8-43.4-47.5-43.4-75c0-13.5,4.6-23.6,12.9-28.5c8-4.7,18.5-4.1,29.7,1.8
							c3.6-8,9.5-13.6,17-16.1c10-3.4,22-1.3,34.7,6c26.8,15.4,49.4,50.3,53.9,83.1c15,15.7,24.7,37.8,24.7,56.5
							c0,12.4-4.3,21.6-12,26.1c-3.2,1.9-6.9,2.8-10.8,2.8C824.1,277.3,818,275.4,811.7,271.8z M739.8,105.2
							c-7.2,2.4-12.8,7.9-16.1,15.9c-0.1,0.3-0.4,0.6-0.7,0.7s-0.7,0.1-1-0.1c-10.8-6-20.9-6.9-28.4-2.5s-11.7,13.8-11.7,26.3
							c0,26.7,18.9,59.4,42.2,72.8l88.7,51.2c10,5.8,19.3,6.8,26.3,2.8c6.9-4,10.7-12.5,10.7-23.9c0-18.2-9.5-39.8-24.3-55
							c-0.1-0.2-0.3-0.4-0.3-0.7c-4.3-32.2-26.5-66.6-52.7-81.7c-8.3-4.9-16.3-7.3-23.5-7.3C745.8,103.7,742.8,104.2,739.8,105.2z"
							/>
					</g>
				</g>
			</g>
		</g>
		<g>
			<g>
				<g>
					<g>
						<g>
							<g>
								<path class="st3" d="M732.2,838.6l-25.8-14.9l1.3-2.2l25.8,14.9c3.7,2.2,9.5,2.4,12.7,0.6L866,767.8
									c0.8-0.4,1.8-1.3,1.8-2.4c0-1.2-1-2.5-2.8-3.5L687.2,659.3l1.3-2.2l177.7,102.6c2.6,1.5,4.1,3.6,4.1,5.7c0,1.8-1,3.5-3,4.6
									l-119.9,69.1c-1.8,1.1-4.2,1.6-6.7,1.6C737.8,840.7,734.7,840,732.2,838.6z"/>
							</g>
							<g>
								<path class="st3" d="M510.9,710.8c-2.6-1.5-4.1-3.6-4.1-5.7c0-1.8,1-3.5,3-4.6l100.9-58.2l1.3,2.2l-100.9,58.2
									c-0.8,0.4-1.8,1.3-1.8,2.4c0,1.2,1,2.5,2.8,3.5l29.7,17.2l-1.3,2.2L510.9,710.8z"/>
							</g>
						</g>
					</g>
					<g>
						<path class="st3" d="M736.7,854.4c-1.7-0.4-3.2-1-4.5-1.7l-25.8-14.9l1.3-2.2l25.8,14.9c1.1,0.6,2.4,1.1,3.8,1.4
							c2.2,0.5,4.5,0.5,6.5,0.1c0.9-0.2,1.7-0.5,2.4-0.9L866,781.9c1.2-0.7,1.8-1.6,1.8-2.5v-0.1c0-0.5,0-8.7,0-14.2h2.5v13.7
							c0,0.2,0,0.4,0,0.6c0.1,1.9-1,3.6-3,4.7l-119.8,69.2c-0.9,0.5-1.9,0.9-3.1,1.2c-1.1,0.3-2.4,0.4-3.6,0.4
							C739.4,854.9,738,854.8,736.7,854.4z"/>
					</g>
					<g>
						<path class="st3" d="M510.8,725.1c-2.8-1.6-4.2-3.8-4-6.1v-13.4h2.5V719v0.1c-0.1,1.2,0.9,2.6,2.8,3.7l29.7,17.4l-1.3,2.2
							L510.8,725.1z"/>
					</g>
				</g>
				<g>
					<rect x="738.5" y="839.4" class="st3" width="2.5" height="14.2"/>
				</g>
			</g>
			<g>
				<g>
					<path class="st3" d="M545,689.9l-9-2.7l0.4-1.4l9,2.7c9.4,2.8,20.6,1.8,28-2.5l40.9-23.6c1.8-1,3.3-2.2,4.4-3.5l1.1,1
						c-1.3,1.4-2.9,2.7-4.8,3.8l-40.9,23.6c-4.8,2.8-11.2,4.3-17.7,4.3C552.5,691.6,548.6,691,545,689.9z"/>
				</g>
				<g>
					<path class="st3" d="M570.2,678.3c-0.8-0.4-0.9-1.1-0.2-1.5l25.9-14.9c0.7-0.4,1.8-0.3,2.6,0.1c0.8,0.4,0.9,1.1,0.2,1.5
						l-25.9,14.9C572.1,678.8,571,678.8,570.2,678.3z"/>
				</g>
			</g>
			<g>
				<g>
					<path class="st3" d="M687.7,765.2l0.1-1.5c18.2,1.4,36.1-2.1,49.1-9.6c10.9-6.4,17-14.7,17-23.6s-6-17.2-16.9-23.5
						c-22.8-13.2-60.1-13.2-83,0c-13.4,7.8-19.5,18.8-16.1,29.5l-1.4,0.4c-3.6-11.4,2.7-23.1,16.8-31.2c23.3-13.4,61.2-13.4,84.5,0
						c11.4,6.6,17.7,15.4,17.7,24.8c0,9.5-6.3,18.3-17.8,24.9c-11.4,6.5-26.4,10.1-42.2,10.1C692.9,765.5,690.3,765.4,687.7,765.2z"
						/>
				</g>
				<g>
					<g>
						<g>
							<g>
								<path class="st2" d="M745.5,733.2l-36-21.1c-6-3.4-14-5.4-22.3-5.5c-8.4-0.1-16.1,1.7-21.6,5.1c-4.2,2.5-6.7,5.7-7.5,9.3
									c-0.1,0.3,0.7,0.7,1.7,0.7c1,0.1,1.9-0.2,2-0.5c0.7-3.4,3.1-6.4,7-8.8c4.8-3,11.4-4.6,18.4-4.5c7,0.1,13.8,1.8,19.1,4.9
									l36.1,20.9c0.5,0.3,1.6,0.5,2.5,0.3C745.7,733.8,746,733.5,745.5,733.2z"/>
							</g>
						</g>
						<g>
							<g>
								<path class="st2" d="M698.8,755l-31.7-18.3c-3.6-2-6.3-4.6-7.8-7.4c-0.2-0.3-1.1-0.5-2.1-0.5s-1.7,0.4-1.5,0.7
									c1.6,3,4.5,5.7,8.3,7.9l31.7,18.3c0.5,0.3,1.6,0.5,2.5,0.3C699,755.9,699.3,755.5,698.8,755z"/>
							</g>
						</g>
						<g>
							<g>
								<path class="st2" d="M726.8,733.2l-26.2-15.1c-2.1-1.1-4.5-2-7.3-2.5c-0.8-0.2-1.9-0.1-2.4,0.2s-0.2,0.6,0.7,0.8
									c2.2,0.4,4.2,1.1,5.9,2.1l26.2,15.1c0.5,0.3,1.6,0.4,2.5,0.2C727,733.8,727.3,733.4,726.8,733.2z"/>
							</g>
						</g>
						<g>
							<g>
								<path class="st2" d="M691.9,741.7l-17.1-9.9c-6-3.4-6-9.1,0-12.6c1.5-0.9,3.3-1.6,5.2-2c0.8-0.2,1-0.5,0.5-0.8
									c-0.6-0.3-1.7-0.4-2.5-0.2c-2.4,0.6-4.6,1.4-6.4,2.4c-6.6,3.8-6.6,10,0,13.8l17.1,9.9c0.5,0.3,1.6,0.4,2.5,0.2
									C692.1,742.3,692.4,742,691.9,741.7z"/>
							</g>
						</g>
						<g>
							<g>
								<path class="st2" d="M711.3,742.2l-25.6-14.8c-1.7-1-2.3-2.1-1.4-3.2c0.6-0.8,1.8-1.3,2.9-1.3c0.6,0,1.4,0.2,2,0.6l9.2,5.3
									c0.5,0.3,1.6,0.4,2.5,0.2c0.9-0.1,1.2-0.5,0.7-0.8l-9.2-5.3c-1.3-0.8-3.2-1.2-5.2-1.2s-3.9,0.5-5.2,1.2
									c-2.3,1.4-2.3,3.5,0,4.8l26.2,15.1c0.5,0.3,1.6,0.4,2.5,0.2C711.6,742.8,711.9,742.4,711.3,742.2z"/>
							</g>
						</g>
					</g>
					<g>
						<g>
							<path class="st2" d="M725.1,741.7l-16.4-9.5c-0.5-0.3-1.6-0.4-2.5-0.2c-0.9,0.1-1.2,0.5-0.7,0.8l16.4,9.5
								c0.5,0.3,1.6,0.4,2.5,0.2C725.2,742.3,725.5,742,725.1,741.7z"/>
						</g>
					</g>
					<g>
						<g>
							<path class="st2" d="M711.5,753l-9-5.2c-0.5-0.3-1.6-0.4-2.5-0.2c-0.9,0.1-1.2,0.5-0.7,0.8l9,5.2c0.5,0.3,1.6,0.4,2.5,0.2
								S712,753.3,711.5,753z"/>
						</g>
					</g>
				</g>
			</g>
		</g>
		<g>
			<g>
				<g>
					<path class="st3" d="M315.8,672.9l-30-4.6l0.4-2.5l29.8,4.5l15.5-3l0.5,2.5l-15.7,3.1c0,0-0.1,0-0.2,0S316,672.9,315.8,672.9z"
						/>
				</g>
				<g>
					<path class="st3" d="M361.3,673.4l-0.3-0.2c-3.7-2.1-7.2-4.2-13.4-4.2v-2.5c6.9,0,10.8,2.3,14.7,4.6l118.7,70l-1.3,2.2
						L361.3,673.4z"/>
				</g>
				<g>
					<path class="st3" d="M448.1,799.9l30.5-17.6c4.9-2.8,7.9-8.1,7.9-13.7c0-5.4,0-13.6,0-14c-0.3-4.5-2.7-8.6-6.6-11.1
						c-4.1-2.6-9.2-3.2-13.7-1.5l-18.6,7c-0.3,0.1-0.5,0.1-0.8,0l-44.5-12.4l0.7-2.4l44.2,12.3l18.2-6.9c5.2-2,11.2-1.3,15.9,1.7
						c4.6,3,7.5,7.8,7.8,13.1c0,0.4,0,10.9,0,14.1c0,6.6-3.6,12.6-9.2,15.9L449.4,802L448.1,799.9z"/>
				</g>
				<g>
					<path class="st3" d="M266,790.2l0.8-1.3l35.3,20.4l-0.8,1.3L266,790.2z M270.8,784l0.8-1.3l27.5,15.9l-0.8,1.3L270.8,784z
						 M390.2,738.7c-1.2-0.7-11.7-6.7-109.5-63.5c-2.6-1.5-5.1-1.9-6.5-1.1c-1.5,0.8-2.3,3-2.3,6V691h-1.5v-10.9
						c0-3.5,1.1-6.2,3-7.3c2-1.1,4.9-0.7,8,1.1c1.1,0.7,109.3,63.3,109.6,63.5c4,2.3,7.9,6.7,10.6,11.9l-1.3,0.7
						C397.7,745.1,394,740.9,390.2,738.7z M393.5,732.3l-109.8-63.5c-5.1-2.9-10-3.3-13.9-1.1s-6,6.7-6,12.5h-1.5
						c0-6.4,2.4-11.3,6.7-13.8c4.4-2.5,9.8-2.1,15.4,1.1L394.2,731c6,3.4,11.5,9.9,14.7,17.3l-1.4,0.6
						C404.4,741.8,399.1,735.6,393.5,732.3z"/>
				</g>
				<g>
					<g>
						
							<rect x="298.9" y="807.5" transform="matrix(0.9835 -0.181 0.181 0.9835 -142.8107 67.7158)" class="st3" width="1.5" height="17.8"/>
					</g>
					<g>
						<path class="st3" d="M290.6,812.7L269,800.3c-1.1-0.6-1.8-1.5-2.1-2.7c-0.4-1.2-0.2-2.4,0.4-3.4s1.5-1.7,2.6-2
							s2.3-0.1,3.3,0.5l-0.8,1.3c-0.6-0.4-1.4-0.5-2.1-0.3c-0.7,0.1-1.3,0.6-1.7,1.3c-0.4,0.7-0.5,1.5-0.3,2.3s0.7,1.4,1.4,1.8
							l21.9,12.6c0.2,0.1,0.4,0.3,0.4,0.5l2.6,13.9l-1.5,0.3L290.6,812.7z"/>
					</g>
				</g>
				<g>
					<g>
						<path class="st3" d="M368.4,717.6l-24.8-14.4c-0.1-0.1-0.2-0.3-0.3-0.5l-4.6-17.4l1.4-0.4l4.5,17.1l24.5,14.2
							c0.5,0.3,1,0.4,1.5,0.4c1.1,0,2.1-0.6,2.6-1.5c0.8-1.5,0.3-3.3-1.1-4.1L350,698.2c-0.1-0.1-0.2-0.3-0.3-0.5l-4.2-15.8l1.4-0.4
							L351,697l21.9,12.7c2.1,1.2,2.8,4,1.6,6.1c-0.8,1.3-2.3,2.2-3.9,2.2C369.8,718,369,717.8,368.4,717.6z"/>
					</g>
					<g>
						
							<rect x="338.5" y="684.4" transform="matrix(0.9662 -0.2579 0.2579 0.9662 -165.1049 110.6561)" class="st3" width="1.5" height="0.7"/>
					</g>
				</g>
				<g>
					<path class="st3" d="M334.2,683.5c-2.5-1.5-4.4-3.9-5.1-6.8s-0.3-5.8,1.2-8.4c1.5-2.5,3.9-4.4,6.8-5.1s5.8-0.3,8.4,1.2
						c2.5,1.5,4.4,3.9,5.1,6.8c1.6,5.9-2,12-7.9,13.5c-0.9,0.3-1.9,0.4-2.8,0.4C338,685.1,336.1,684.6,334.2,683.5z M337.7,665.7
						c-2.2,0.6-4,2-5.2,4s-1.5,4.3-0.9,6.5s2,4,4,5.2s4.3,1.5,6.5,0.9c4.6-1.2,7.3-5.9,6.1-10.5c-0.6-2.2-2-4-4-5.2
						c-1.3-0.8-2.8-1.2-4.3-1.2C339.2,665.4,338.5,665.5,337.7,665.7z"/>
				</g>
				<g>
					<g>
						<path class="st3" d="M288.3,834.8c0-6.1,5-11.1,11.1-11.1s11.1,5,11.1,11.1s-5,11.1-11.1,11.1
							C293.3,845.9,288.4,840.9,288.3,834.8z M290.8,834.8c0,4.8,3.9,8.6,8.6,8.6c4.8,0,8.6-3.9,8.6-8.6c0-4.8-3.9-8.6-8.6-8.6
							S290.9,830,290.8,834.8z"/>
					</g>
				</g>
				<g>
					
						<rect x="403.7" y="673.6" transform="matrix(0.5083 -0.8612 0.8612 0.5083 -423.2543 704.1193)" class="st3" width="2.5" height="98.3"/>
				</g>
			</g>
		</g>
		<g>
			<g>
				<path class="st2" d="M667.3,684c2.2-1.2,8.2-4.3,9.1-4.9c5-3.4,7.7-10,7.7-18.6c0-19.4-13.8-43.1-30.6-52.8
					c-7.7-4.4-15-5.3-20.5-2.5c-1.2,0.6-8.9,5.3-9,5.3l-0.8-1.3c0.3-0.2,7.9-4.7,9.1-5.3c6-3,13.8-2.1,22,2.6
					c17.3,9.9,31.3,34.2,31.3,54c0,9.1-3,16.2-8.4,19.9c-1.2,0.9-9,4.8-9.3,5L667.3,684z M664.5,660.2c-5.2-3-9.4-10.2-9.4-16.2
					c0-1.5,0.3-2.8,0.8-3.9l1.4,0.6c-0.4,0.9-0.6,2-0.6,3.3c0,5.5,3.8,12.2,8.6,14.9c1.1,0.6,2.1,1,3.1,1.1l-0.2,1.5
					C667,661.3,665.8,660.9,664.5,660.2z M557.5,576.9l-7.2,4.2l-0.8-1.3l7.6-4.5c0.3-0.1,0.6-0.1,0.8,0l63.2,36.5l-0.8,1.3
					L557.5,576.9z M574.1,611.7l5.5-3.2l0.8,1.3l-5.5,3.2L574.1,611.7z M563.8,605.8l5.1-3l0.8,1.3l-5.1,3L563.8,605.8z"/>
			</g>
			<g>
				<path class="st2" d="M549.9,580.6v5.5l10.6,18.2l4,2.3v-10.7l5.2,3v10.5l5.2,3v-6.8l5.2,3v7.2l27,15.6l3.9,6.8l5.5,3.2
					c4,16.5,15.6,33.3,29.2,41.2c17,9.8,30.8,1.9,30.8-17.6c0-19.6-13.8-43.4-30.8-53.2c-13.6-7.9-25.2-4.4-29.2,7.4L549.9,580.6z
					 M646.3,647.2c0-7,4.9-9.8,11-6.3c6.1,3.5,11,12,11,19s-4.9,9.8-11,6.3S646.3,654.2,646.3,647.2z"/>
				<path class="st2" d="M645.4,683.3c-13.4-7.8-25.2-24.4-29.5-41.4l-5.2-3c-0.1-0.1-0.2-0.2-0.3-0.3l-3.8-6.6l-26.9-15.8
					c-0.3-0.1-0.4-0.3-0.4-0.6v-6.7l-3.7-2.1v5.5c0,0.2-0.2,0.5-0.4,0.6c-0.3,0.1-0.6,0.1-0.8,0l-5.2-3c-0.3-0.1-0.4-0.3-0.4-0.6
					v-10l-3.7-2.1v9.4c0,0.2-0.2,0.5-0.4,0.6c-0.3,0.1-0.6,0.1-0.8,0l-4-2.3c-0.1-0.1-0.2-0.2-0.3-0.3L549,586.4
					c-0.1-0.1-0.1-0.3-0.1-0.4v-5.5c0-0.2,0.2-0.5,0.4-0.6c0.3-0.1,0.6-0.1,0.8,0L616,618c2-5,5.3-8.5,9.8-10.2
					c5.8-2.1,13-0.9,20.3,3.3c17.2,9.9,31.2,34,31.2,53.8c0,9.7-3.3,16.9-9.3,20.4c-2.5,1.5-5.3,2.2-8.4,2.2
					C655.2,687.5,650.4,686.1,645.4,683.3z M626.1,609.2c-4.3,1.6-7.5,5.1-9.2,10.2c0,0.3-0.2,0.4-0.4,0.5c-0.2,0-0.4,0-0.6-0.1
					l-65.6-37.9v4l10.4,17.8l2.7,1.6v-9.4c0-0.2,0.2-0.5,0.4-0.6c0.3-0.1,0.6-0.1,0.8,0l5.2,3c0.3,0.1,0.4,0.3,0.4,0.6v10l3.7,2.1
					v-5.5c0-0.2,0.2-0.5,0.4-0.6c0.3-0.1,0.6-0.1,0.8,0l5.2,3c0.3,0.1,0.4,0.3,0.4,0.6v6.7l26.7,15.4c0.1,0.1,0.2,0.2,0.3,0.3
					l3.8,6.6l5.3,3.1c0.2,0.1,0.4,0.3,0.4,0.5c4.1,16.7,15.7,33.1,28.9,40.7c8,4.6,15.5,5.4,21.1,2.2c5.5-3.2,8.6-10,8.6-19.1
					c0-19.3-13.6-42.8-30.4-52.5c-4.7-2.7-9.3-4.1-13.4-4.1C630,608.3,628.1,608.6,626.1,609.2z M656.9,666.9
					c-6.3-3.6-11.4-12.4-11.4-19.6c0-3.6,1.3-6.4,3.6-7.7s5.3-1,8.5,0.8c6.3,3.6,11.4,12.4,11.4,19.6c0,3.6-1.3,6.4-3.6,7.7
					c-0.9,0.5-2,0.8-3.2,0.8C660.6,668.5,658.8,668,656.9,666.9z M649.9,640.8c-1.8,1-2.8,3.3-2.8,6.4c0,6.7,4.7,14.9,10.6,18.3
					c2.7,1.6,5.2,1.9,7,0.8c1.8-1,2.8-3.3,2.8-6.4c0-6.7-4.7-14.9-10.6-18.3c-1.6-0.9-3.1-1.4-4.5-1.4
					C651.5,640.2,650.6,640.4,649.9,640.8z"/>
			</g>
		</g>
		<g>
			<g>
				<g>
					<g>
						<path class="st3" d="M694.1,887.3c0.1-0.1,2.9-2,4.8-3.2c1.5-0.9,2.3-2.9,2.3-5.6v-86.7c0-0.8-0.1-1.8-0.3-2.8
							c-1-5-3.7-9.9-7.2-12.7c-0.7-0.6-1.3-1-2-1.4L562,700c-2.4-1.3-4.5-1.6-6.1-0.7l-6.5,3.7l-1.2-2.2l6.5-3.7
							c2.3-1.4,5.4-1.1,8.6,0.7L693,772.7c0.8,0.5,1.6,1,2.3,1.6c4,3.2,7,8.5,8.1,14.2c0.2,1.2,0.3,2.3,0.3,3.3v86.7
							c0,3.6-1.2,6.3-3.5,7.7c-1.9,1.1-4.7,3.1-4.7,3.1L694.1,887.3z"/>
					</g>
				</g>
				<g>
					<path class="st3" d="M685.6,889.5l-130-75c-6.1-3.5-11.1-12.1-11.1-19.1v-86.9c0-3.7,1.3-6.4,3.7-7.8c2.4-1.4,5.5-1.1,8.7,0.7
						l130,75c6.1,3.5,11.1,12.1,11.1,19.1v86.9c0,3.7-1.3,6.4-3.7,7.8c-1,0.6-2.1,0.9-3.3,0.9C689.3,891.1,687.5,890.5,685.6,889.5z
						 M549.5,702.8c-1.5,0.9-2.4,2.9-2.4,5.6v86.9c0,6.3,4.4,13.9,9.8,17l130,75c2.4,1.3,4.6,1.6,6.2,0.7c1.5-0.9,2.4-2.9,2.4-5.6
						v-86.9c0-6.3-4.4-13.9-9.8-17l-130-75c-1.5-0.9-2.9-1.3-4.1-1.3C550.8,702.2,550.1,702.4,549.5,702.8z"/>
				</g>
				<g>
					<g>
						<g>
							
								<rect x="663.4" y="798.8" transform="matrix(0.4932 -0.8699 0.8699 0.4932 -369.2694 989.5548)" class="st3" width="2.5" height="25.8"/>
						</g>
					</g>
					<g>
						<g>
							
								<rect x="651.1" y="760.7" transform="matrix(0.4953 -0.8687 0.8687 0.4953 -355.1643 964.3258)" class="st3" width="2.5" height="54.2"/>
						</g>
					</g>
					<g>
						<g>
							
								<rect x="639.6" y="790.9" transform="matrix(0.5038 -0.8638 0.8638 0.5038 -371.1871 949.4487)" class="st3" width="2.5" height="13.8"/>
						</g>
					</g>
				</g>
				<g>
					<path class="st2" d="M565.9,741.8v19.1c0,5.3,3.7,11.8,8.4,14.5l16.9,9.7c4.7,2.7,10-0.6,10-5.9V760c0-5.3-3.7-11.8-8.4-14.5
						l-16.7-9.6C571.5,733.2,565.9,736.4,565.9,741.8z M579.2,750.6l4.3-0.6l4.3,5.5v2.8v1.7v6.4v3v1.5l-4.3,0.6l-4.3-5.5v-3.1v-1.4
						v-6.4v-2.6V750.6z M590.7,761.6l7.6,4.4v6.6l-7.6-4.4V761.6z M568.8,760.8v-2.2l7.6,4.4v3.3l7.2,9.2l7.2-0.9v-3.3v-0.2l7.6,4.4
						v2.4c0,4.4-3.2,6.3-7.1,4l-15.5-8.9C571.9,770.7,568.7,765.3,568.8,760.8L568.8,760.8z M568.7,749l7.6,4.4v6.6l-7.6-4.4V749z
						 M568.6,746.1V743c0-4.4,3.2-6.3,7.1-4l15.5,8.9c3.9,2.3,7.1,7.7,7.1,12.2v3l-7.6-4.4v-3.4l-7.2-9.2l-7.2,0.9v3.5L568.6,746.1
						L568.6,746.1z"/>
				</g>
				<g>
					<g>
						<path class="st3" d="M618.5,830.8l-24.7-14.1c-0.3-0.2-0.4-0.4-0.4-0.7v-13.5c0-0.2,0.2-0.5,0.4-0.6s0.5-0.1,0.7,0l24.8,14.2
							c0.3,0.2,0.4,0.4,0.4,0.7v13.4c0,0.2-0.2,0.5-0.4,0.6c-0.1,0.1-0.3,0.1-0.4,0.1C618.8,830.9,618.6,830.9,618.5,830.8z
							 M594.8,803.9v11.6l23.3,13.3v-11.6L594.8,803.9z"/>
					</g>
					<g>
						<path class="st3" d="M589.9,814.6l-24.8-14.2c-0.3-0.2-0.4-0.4-0.4-0.7v-13.4c0-0.2,0.2-0.5,0.4-0.6s0.5-0.1,0.7,0l24.8,14.2
							c0.3,0.2,0.4,0.4,0.4,0.7V814c0,0.2-0.2,0.5-0.4,0.6c-0.1,0.1-0.3,0.1-0.4,0.1C590.1,814.7,590,814.6,589.9,814.6z
							 M566.2,787.7v11.6l23.3,13.3V801L566.2,787.7z"/>
					</g>
					<g>
						<path class="st3" d="M647.2,847l-24.8-14.2c-0.3-0.2-0.4-0.4-0.4-0.7v-13.4c0-0.2,0.2-0.5,0.4-0.6s0.5-0.1,0.7,0l24.8,14.2
							c0.3,0.2,0.4,0.4,0.4,0.7v13.4c0,0.2-0.2,0.5-0.4,0.6c-0.1,0.1-0.3,0.1-0.4,0.1C647.4,847.1,647.3,847.1,647.2,847z
							 M623.5,820.1v11.6l23.3,13.3v-11.6L623.5,820.1z"/>
					</g>
					<g>
						<path class="st3" d="M675.9,863.2L651.1,849c-0.3-0.2-0.4-0.4-0.4-0.7v-13.4c0-0.2,0.2-0.5,0.4-0.6s0.5-0.1,0.7,0l24.8,14.2
							c0.3,0.2,0.4,0.4,0.4,0.7v13.4c0,0.2-0.2,0.5-0.4,0.6c-0.1,0.1-0.3,0.1-0.4,0.1C676.1,863.3,675.9,863.3,675.9,863.2z
							 M652.1,836.4V848l23.3,13.3v-11.6L652.1,836.4z"/>
					</g>
				</g>
			</g>
		</g>
		<g>
			<g>
				<g>
					<g>
						<path class="st3" d="M428.2,603.9c1.7-5,1.9-9.8,0.5-13.9l1.4-0.5c1.4,4.4,1.3,9.5-0.5,14.8L428.2,603.9z"/>
					</g>
				</g>
			</g>
			<g>
				
					<rect x="392.2" y="566" transform="matrix(0.5116 -0.8592 0.8592 0.5116 -324.6439 631.8375)" class="st3" width="2.5" height="71"/>
			</g>
			<g>
				
					<rect x="392.3" y="557.4" transform="matrix(0.5035 -0.864 0.864 0.5035 -316.5958 634.278)" class="st3" width="2.5" height="70.5"/>
			</g>
			<g>
				
					<rect x="391.9" y="538.8" transform="matrix(0.5017 -0.8651 0.8651 0.5017 -301.016 626.3625)" class="st3" width="2.5" height="71.3"/>
			</g>
			<g>
				<g>
					
						<rect x="541.8" y="499.4" transform="matrix(0.5128 -0.8585 0.8585 0.5128 -172.9226 714.4682)" class="st3" width="2.5" height="20.4"/>
				</g>
				<g>
					
						<rect x="392.5" y="530.6" transform="matrix(0.4995 -0.8663 0.8663 0.4995 -293.0896 624.2652)" class="st3" width="2.5" height="70.4"/>
				</g>
			</g>
			<g>
				<path class="st3" d="M423.2,620.7c-0.4-0.2-0.6-0.7-0.6-1.1v-9.4c0-0.5,0.2-0.9,0.6-1.1l96.3-55.4l1.2,2.2L425,611v6.5
					l116.8-67.2c6.9-4,12.5-16.5,12.5-24.3v-2.3c0-5.4-2.5-8.8-6.7-8.8c-1.7,0-3.6,0.6-5.5,1.7L425,584v6.4l117.3-67.5
					c3.5-2,5.8-1.3,7.1-0.4c1.3,0.9,2.1,2.5,2.1,4.2v1.3c-0.3,5.4-2.6,10.3-6.7,13.8l-1.6-1.9c3.5-3.1,5.6-7.4,5.8-12v-1.2
					c0-0.9-0.4-1.7-1-2.1c-1.1-0.8-2.6-0.6-4.5,0.5l-119.1,68.6c-0.3,0.2-0.8,0.2-1.2,0c-0.4-0.2-0.6-0.7-0.6-1.1v-9.5
					c0-0.5,0.2-0.9,0.6-1.1l117.7-67.7c2.4-1.3,4.6-2,6.8-2c5.5,0,9.2,4.6,9.2,11.3v2.3c0,8.6-6,22-13.7,26.5l-118.7,68.3
					c-0.2,0.1-0.4,0.2-0.6,0.2C423.6,620.9,423.4,620.8,423.2,620.7z"/>
			</g>
			<g>
				
					<rect x="378.6" y="480.8" transform="matrix(0.4975 -0.8674 0.8674 0.4975 -262.2337 591.4043)" class="st2" width="1.5" height="82.6"/>
			</g>
			<g>
				<g>
					<g>
						<path class="st3" d="M417.7,558.1c1.8-5.9,2.5-13,1.7-18.3l1.5-0.2c0.8,5.5,0.1,12.8-1.8,19L417.7,558.1z"/>
					</g>
				</g>
			</g>
			<g>
				
					<rect x="388" y="522.9" transform="matrix(0.5056 -0.8628 0.8628 0.5056 -285.3114 609.066)" class="st2" width="1.5" height="61.1"/>
			</g>
			<g>
				
					<rect x="386.4" y="514.2" transform="matrix(0.5041 -0.8636 0.8636 0.5041 -280.0491 605.402)" class="st2" width="1.5" height="64.8"/>
			</g>
			<g>
				<g>
					
						<rect x="518.3" y="426.6" transform="matrix(0.4925 -0.8703 0.8703 0.4925 -131.2042 681.8387)" class="st2" width="1.5" height="53.6"/>
				</g>
				<g>
					
						<rect x="343.7" y="405.5" transform="matrix(0.8653 -0.5012 0.5012 0.8653 -155.1414 235.0873)" class="st2" width="32.4" height="1.5"/>
				</g>
				<g>
					
						<rect x="378.7" y="473.9" transform="matrix(0.497 -0.8677 0.8677 0.497 -256.2788 588.4084)" class="st2" width="1.5" height="82.7"/>
				</g>
			</g>
			<g>
				<path class="st2" d="M414.8,570.1c-0.3-0.1-0.4-0.3-0.4-0.6v-6.7c0-0.3,0.2-0.6,0.4-0.7l27-15.6l0.7,1.3l-26.6,15.3v5
					l117.6-67.7c7-4.1,12.7-14,12.7-22.1V476c0-5.7-2.8-9.3-7.2-9.3c-1.8,0-3.8,0.6-5.8,1.8L415.9,536v5.1l118-67.9
					c1.3-0.8,2.6-1.2,3.8-1.2c2.8,0,4.6,2.3,4.6,6v2.4c0,5.5-3.9,12.2-8.7,15l-54.7,31.5l-0.7-1.3l54.7-31.5
					c4.3-2.5,7.9-8.6,7.9-13.7V478c0-1.3-0.3-4.5-3.1-4.5c-0.9,0-2,0.4-3.1,1l-119.1,68.6c-0.2,0.1-0.5,0.1-0.7,0
					c-0.3-0.1-0.4-0.3-0.4-0.6v-6.8c0-0.3,0.2-0.6,0.4-0.7l117.7-67.7c2.2-1.3,4.4-2,6.5-2c5.3,0,8.7,4.3,8.7,10.8v2.3
					c0,8.6-6.1,19.1-13.5,23.4l-118.7,68.3c-0.1,0.1-0.3,0.1-0.4,0.1S414.9,570.2,414.8,570.1z"/>
			</g>
		</g>
		<g>
			<g>
				<g>
					<path class="st3" d="M125.6,622.2l6.7-3.9c0.3-0.2,0.8-0.2,1.2,0c3.5,2.1,6.9,2.9,9.8,2.5l0.4,2.5c-3.3,0.5-7-0.3-10.8-2.4
						l-6.1,3.5L125.6,622.2z"/>
				</g>
				<g>
					<path class="st3" d="M246.4,796.9c19.5-7,27.9-24.6,27.9-58.9v-35.6c-11.2-6.8-20.2-22.5-20.2-35.5c0-1.6,0.1-3.1,0.4-4.6
						l-50.8-55.1l-51-3.9l-6.4,3.7l-1.2-2.2l6.7-3.9c0.2-0.2,0.4-0.2,0.7-0.2l51.9,4c0.3,0,0.6,0.2,0.8,0.4l51.5,56
						c0.3,0.3,0.4,0.7,0.3,1.1c-0.3,1.5-0.5,3.1-0.5,4.7c0,12.4,8.7,27.4,19.4,33.6l0.1,0.1c0.4,0.2,0.6,0.6,0.6,1.1V738
						c0,35.6-8.9,53.9-29.6,61.2L246.4,796.9z"/>
				</g>
				<g>
					<path class="st3" d="M196.2,818l-36.1-55.6c-3.5-5.4-6.9-11-10-16.6l2.2-1.2c3,5.6,6.4,11.1,9.9,16.4l35.9,54.6l36.6-12.4
						c21.1-7.5,33.3-29.9,33.3-61.6v-35.5c-11.2-6.8-20.2-22.5-20.2-35.5c0-1.6,0.1-3.1,0.4-4.6l-50.8-55.1l-49.8-3.8
						c0.3,1.6,0.4,3.1,0.4,4.5c0,6.6-2.3,11.6-6.5,14c-3.7,2.2-8.4,2-13.5-0.4c0,6.3,0,25.8,0,34c0,13.8,2.2,27.9,6.7,43.1l-2.4,0.7
						c-4.6-15.5-6.8-29.8-6.8-43.8c0,0,0-9,0-18c0-4.5,0-9,0-12.4c0-6.3,0-6.3,0.7-6.7c0.4-0.2,0.8-0.2,1.2,0
						c4.9,2.9,9.5,3.3,12.9,1.4c3.3-2,5.2-6.2,5.2-11.9c0-1.8-0.2-3.7-0.6-5.7c-0.1-0.4,0-0.8,0.3-1.1c0.2-0.3,0.6-0.4,1-0.4l51.9,4
						c0.3,0,0.6,0.2,0.8,0.4l51.5,56c0.3,0.3,0.4,0.7,0.3,1.1c-0.3,1.5-0.5,3.1-0.5,4.7c0,12.4,8.7,27.4,19.4,33.6l0.1,0.1
						c0.4,0.2,0.6,0.6,0.6,1.1v36.3c0,32.8-12.7,56.1-35,64l-37.6,12.7c-0.1,0.1-0.3,0.1-0.4,0.1C196.9,818.5,196.5,818.3,196.2,818
						z"/>
				</g>
				<g>
					<path class="st3" d="M200.8,803.9l-31.6-48c-3.9-5.8-7.6-12-10.9-18.3l1.3-0.7c3.3,6.2,6.9,12.4,10.8,18.2l31.3,47.5l28.4-9.6
						c16.5-5.8,26-24.5,26-51.2v-29.9c-12.1-9.9-20.2-26.4-20.2-41.1c0-0.3,0-0.5,0-0.8l-44.7-48.2l-34-2.6
						c-2.3,10.5-9.6,17.7-19.3,19v21.3c0,17.4,4.2,37.1,12.1,57.1l-1.4,0.6c-8-20.1-12.2-40.1-12.2-57.7v-21.9
						c0-0.3,0.3-0.7,0.7-0.7c9.5-1,16.7-8.1,18.8-18.5c0.1-0.4,0.4-0.6,0.8-0.6l35,2.7c0.2,0,0.4,0.1,0.5,0.2l44.9,48.7
						c0.1,0.1,0.2,0.3,0.2,0.5c0,0.3,0,0.7,0,1c0,14.3,8,30.5,19.9,40.2c0.2,0.2,0.3,0.4,0.3,0.6v30.2c0,27.4-9.8,46.5-27,52.6
						l-29,9.8c0,0-0.1,0-0.2,0C201.1,804.3,200.8,804.2,200.8,803.9z"/>
				</g>
				<g>
					
						<rect x="268.1" y="702.5" transform="matrix(0.8632 -0.5048 0.5048 0.8632 -318.0468 233.5684)" class="st3" width="7.9" height="2.5"/>
				</g>
				<g>
					
						<rect x="248.6" y="662.7" transform="matrix(0.8665 -0.4991 0.4991 0.8665 -297.6798 214.6034)" class="st3" width="7.7" height="2.5"/>
				</g>
				<g>
					<g>
						<path class="st3" d="M142,655.3v-15.5h1.5v15.5c0,18,4,38,11.5,57.8l-1.4,0.5C146,693.6,142,673.4,142,655.3z"/>
					</g>
					<g>
						<path class="st3" d="M173.8,752.1c-3.6-5.4-6.9-11.1-10-16.9l1.3-0.7c3,5.8,6.3,11.5,9.9,16.8l30.9,47l-1.3,0.8L173.8,752.1z"
							/>
					</g>
				</g>
				<g>
					<path class="st2" d="M197.2,747.9c-6.8-4-13.3-10.1-18.8-17.9l1.2-0.9c5.3,7.6,11.7,13.6,18.3,17.4c8.2,4.7,15.9,5.5,21.6,2.2
						s8.8-10.2,8.8-19.6c0-19.7-14-43.8-31.1-53.7c-8.2-4.7-15.9-5.5-21.6-2.2s-8.8,10.2-8.8,19.6c0,3.3,0.4,6.9,1.2,10.6l-1.5,0.3
						c-0.9-3.7-1.3-7.4-1.3-10.9c0-9.9,3.3-17.3,9.5-20.9c6.2-3.6,14.4-2.8,23.1,2.2c17.5,10.2,31.8,34.8,31.8,55
						c0,9.9-3.3,17.3-9.5,20.9c-2.6,1.5-5.5,2.2-8.6,2.2C207.1,752.2,202.1,750.7,197.2,747.9z"/>
				</g>
			</g>
			<g>
				<g>
					<path class="st2" d="M183,722.9l6.1-3.7l-10.6-18.4l-36.1,20.8c-0.3,0.2-0.8,0.1-1-0.3l-22.2-38.4l-6,3.8l-0.8-1.3l6.7-4.2
						c0.2-0.1,0.4-0.1,0.6-0.1c0.2,0.1,0.4,0.2,0.5,0.4l22.2,38.4l36.1-20.7c0.3-0.2,0.8-0.1,1,0.3l11.3,19.6c0.2,0.3,0,0.8-0.3,1
						l-6.7,4.1L183,722.9z"/>
				</g>
				<g>
					<polygon class="st2" points="135.3,751 101.5,692.5 112.7,686 135.3,725.1 172.1,704.1 183.4,723.5 					"/>
					<path class="st2" d="M134.7,751.2l-33.8-58.5c-0.1-0.2-0.2-0.4-0.1-0.6c0.1-0.2,0.2-0.4,0.4-0.5l11.2-6.4
						c0.3-0.2,0.8-0.1,1,0.3l22.2,38.4l36.2-20.6c0.3-0.2,0.8-0.1,1,0.3l11.3,19.5c0.1,0.2,0.2,0.4,0.1,0.6
						c-0.1,0.2-0.2,0.4-0.4,0.5l-48.1,27.4c-0.1,0.1-0.3,0.1-0.4,0.1C135.1,751.7,134.8,751.6,134.7,751.2z M171.8,705.1l-36.2,20.6
						c-0.3,0.2-0.8,0.1-1-0.3L112.4,687l-9.9,5.7l33.1,57.2l46.8-26.7L171.8,705.1z"/>
				</g>
			</g>
		</g>
		<g>
			<g>
				<path class="st1" d="M330.5,896.7c26.9,15.5,70.6,15.5,97.5,0c17.6-10.2,23.7-24.5,18.2-37.6l-3.2,4.5l-4.6,4l-2.3,2.3l-2.7,6.5
					l-7.1,8.1l-9.4,6l-8.9,3.7l-18.7,3.9l-13,0.5l-10.6-0.9l-17.5-4.3l-11.4-5.5l-7.6-6l-5.9-7.6l-1.7-7.3v-8.3l0.4-7.3l2.6-6
					l-0.5-1C303.7,860,305.8,882.3,330.5,896.7z"/>
			</g>
		</g>
		<g>
			<g>
				<g>
					<g>
						<path class="st2" d="M343.8,817c-9.5-6.7-14.1-15.3-13-24v-8.8h1.5v8.9c-1,8.2,3.4,16.3,12.4,22.7
							c19.8,14.1,55.7,16.2,80.1,4.8c12.3-5.8,19.9-14.4,20.7-23.4l0.1-13h1.5l-0.1,13.1c-0.9,9.6-8.8,18.6-21.6,24.6
							c-10.7,5.1-23.6,7.5-36.5,7.5C372,829.4,355.3,825.1,343.8,817z"/>
					</g>
					<g>
						<path class="st2" d="M343.8,807.7c-9.2-6.5-13.9-14.8-13.1-23.3c0.9-9.7,8.8-18.7,21.6-24.7c24.8-11.6,61.4-9.4,81.6,4.9
							c9.2,6.5,13.9,14.8,13.1,23.3c-0.9,9.7-8.8,18.7-21.6,24.7c-10.7,5.1-23.6,7.5-36.5,7.5C372,820.1,355.3,815.9,343.8,807.7z
							 M352.9,761c-12.3,5.8-19.9,14.4-20.7,23.5c-0.7,8,3.7,15.8,12.5,22c19.8,14.1,55.7,16.2,80.1,4.8
							c12.3-5.8,19.9-14.4,20.7-23.5c0.7-8-3.7-15.8-12.5-22c-11.2-8-27.6-12.1-44.2-12.1C376.2,753.7,363.4,756.2,352.9,761z
							 M349.4,805.2c-8.1-5.8-12.2-13-11.5-20.5c0.8-8.4,7.7-16.3,18.9-21.6c21.7-10.2,53.7-8.2,71.4,4.3
							c8.1,5.7,12.2,12.9,11.5,20.4c-0.8,8.4-7.7,16.3-18.9,21.6c-9.4,4.4-20.7,6.5-31.9,6.5C374.1,815.9,359.5,812.2,349.4,805.2z
							 M357.5,764.5c-10.7,5-17.3,12.5-18,20.4c-0.7,6.9,3.2,13.7,10.8,19.1c17.3,12.2,48.6,14.1,69.9,4.1c10.7-5,17.3-12.5,18-20.4
							c0.7-6.9-3.2-13.7-10.8-19.1c-9.8-7-24.2-10.6-38.6-10.6C377.8,758,366.7,760.1,357.5,764.5z"/>
					</g>
				</g>
				<g>
					<g>
						<path class="st2" d="M361.4,783.3c0-1.6,0.8-3.2,2.4-4.9c0.6-0.6,1.4-1.3,2.3-2l0.2-0.2l-1.2-0.7l-3.2-1.8l6-3.5l4.4,2.6
							l0.3-0.1c3.1-1.4,13.9-5.7,22.1-1c2.8,1.6,4,3.2,4.1,4.8c0,0.1,0,0.1,0,0.2c0,3-3.8,6.1-8.3,9.4c-5.1,3.8-6.7,6.4-4.8,8.1
							c0.2,0.2,0.5,0.4,0.8,0.6c3.7,2.1,9.5,1.3,15.3-2c2.3-1.3,4.5-3.3,5.4-5.4c0.5-1.1,0.6-2.2,0.2-3.3l-0.2-0.5l7.9-1.9l0.3,0.6
							c0.5,1,0.8,2,0.8,2.9v0.5c-0.2,3.7-3.7,6.8-6.2,8.5l-0.3,0.2l2.7,1.6l2.2,1.2l-6,3.5l-5.1-2.9l-0.3,0.2
							c-6.5,3.3-16.1,4.7-23.1,0.7c-1.9-1.2-3.1-2.3-3.7-3.5c-1.9-3.9,2.8-7.8,8.3-11.9c2-1.3,3.6-2.6,4.6-3.8
							c1.3-1.5,1.4-2.8-0.6-4c-3.3-1.9-8.3-1.2-13.8,2c-3.3,1.9-5.5,4.7-5.2,6.9l0.1,0.4l-7.5,1.6l-0.3-0.7
							c-0.3-0.8-0.5-1.5-0.5-2.2C361.5,783.5,361.5,783.4,361.4,783.3z"/>
						<path class="st2" d="M379.8,798.9c-2-1.2-3.3-2.4-4-3.8c-2.1-4.4,3.1-8.7,8.6-12.8c1.7-1.2,3.4-2.5,4.4-3.7
							c0.6-0.7,0.9-1.3,0.8-1.7c0-0.4-0.4-0.8-1.1-1.2c-3-1.8-7.7-1-13,2c-3.1,1.7-5.1,4.4-4.9,6.2l0.1,0.4c0,0.4-0.2,0.7-0.6,0.8
							l-7.5,1.6c-0.4,0.1-0.8-0.1-0.9-0.4l-0.3-0.7c-0.3-0.9-0.5-1.7-0.5-2.5c0-0.1,0-0.1,0-0.2c0-1.8,0.9-3.5,2.6-5.3
							c0.5-0.5,1-1,1.7-1.6l-3.5-2c-0.3-0.1-0.4-0.3-0.4-0.6c0-0.2,0.2-0.5,0.4-0.6l6-3.5c0.3-0.1,0.6-0.1,0.8,0l4.1,2.4
							c3.2-1.5,14.3-5.8,22.7-0.9c2.9,1.7,4.3,3.5,4.4,5.4c0,0.1,0,0.2,0,0.3c0,3.5-4.1,6.7-8.6,10c-4.3,3.1-5.3,4.9-5.3,5.8
							c0,0.5,0.2,0.8,0.6,1.2c0.1,0.2,0.3,0.3,0.6,0.5c3.4,2,8.9,1.2,14.5-2c2.5-1.3,4.3-3.2,5.1-5c0.4-1,0.4-1.9,0.1-2.7l-0.2-0.5
							c-0.1-0.2-0.1-0.4,0-0.6s0.3-0.3,0.5-0.4l7.9-1.9c0.3-0.1,0.6,0.1,0.8,0.4l0.3,0.6c0.6,1,0.9,2.1,0.9,3.2v0.6
							c-0.3,3.6-3.2,6.6-5.9,8.6l3.8,2.2c0.3,0.1,0.4,0.3,0.4,0.6c0,0.2-0.2,0.5-0.4,0.6l-6,3.5c-0.2,0.1-0.5,0.1-0.7,0l-4.7-2.7
							c-3.8,1.9-8.6,3.2-13.4,3.2C386.4,801.7,382.7,800.9,379.8,798.9z M403.8,796.8l4.7,2.7l4.5-2.6l-3.7-2.1
							c-0.2-0.1-0.4-0.3-0.4-0.6c0-0.2,0.1-0.5,0.3-0.6l0.3-0.2c2.1-1.5,5.7-4.4,5.9-7.9V785c0-0.8-0.3-1.7-0.7-2.5l-0.1-0.1
							l-6.5,1.6c0.3,1.1,0.2,2.2-0.3,3.5c-0.9,2.1-3,4.2-5.7,5.8c-6,3.5-12.1,4.2-16,2c-0.4-0.3-0.7-0.5-0.9-0.7
							c-0.7-0.6-1-1.4-1-2.3c0.1-1.8,2-4,5.9-6.9c3.9-2.7,8-6,8-8.7h0.8l-0.8-0.1c-0.1-1.4-1.3-2.8-3.7-4.2
							c-7.8-4.5-18.4-0.4-21.4,1l-0.3,0.1c-0.2,0.1-0.5,0.1-0.7,0l-4.1-2.3l-4.5,2.6l3.3,1.9c0.2,0.1,0.4,0.4,0.4,0.6
							c0,0.2-0.1,0.4-0.3,0.6l-0.2,0.2c-0.9,0.7-1.6,1.4-2.2,2c-1.4,1.6-2.2,3-2.2,4.5h-0.8h0.8c0,0.6,0.1,1.3,0.4,1.9v0.1l6.2-1.3
							c-0.2-2.5,2-5.5,5.6-7.5c5.7-3.3,11-4,14.5-2c1.1,0.6,1.8,1.3,1.9,2.2c0.2,0.9-0.2,1.8-1.1,2.9c-1.1,1.3-2.9,2.7-4.7,4
							c-6.1,4.5-9.6,7.9-8.1,10.9c0.5,1,1.6,2.1,3.4,3.1c6.7,3.9,16.1,2.4,22.4-0.7l0.3-0.2c0.2-0.1,0.3-0.1,0.4-0.1
							C403.6,796.9,403.7,797,403.8,796.8z"/>
					</g>
				</g>
			</g>
			<g>
				<g>
					<g>
						<path class="st2" d="M318.3,833.2c-9.5-6.7-14.1-15.3-13-24v-8.8h1.5v8.9c-1,8.2,3.4,16.3,12.4,22.7
							c19.8,14.1,55.7,16.2,80.1,4.8c7.2-3.3,12.8-7.7,16.4-12.6l1.2,0.9c-3.7,5.1-9.6,9.6-17,13.1c-10.7,5.1-23.6,7.5-36.5,7.5
							C346.5,845.7,329.8,841.5,318.3,833.2z"/>
					</g>
					<g>
						<path class="st2" d="M318.2,824c-9.2-6.5-13.9-14.8-13.1-23.3c0.9-9.7,8.8-18.7,21.6-24.7c2.7-1.3,5.7-2.4,8.8-3.4l0.5,1.4
							c-3,0.9-5.9,2-8.6,3.3c-12.3,5.8-19.9,14.4-20.7,23.5c-0.7,8,3.7,15.8,12.5,22c19.8,14,55.9,16.1,80.5,4.5l0.6,1.4
							c-10.9,5.1-24.1,7.6-37.1,7.6C346.3,836.3,329.7,832.1,318.2,824z"/>
					</g>
				</g>
			</g>
			<g>
				<g>
					<g>
						<path class="st2" d="M334,856.8c-8.7-6.2-13.4-14.1-13.1-22.2l1.5,0.1c-0.3,7.6,4.2,15,12.5,20.9
							c19.8,14.1,55.7,16.2,80.1,4.8c12.4-5.9,20-14.4,20.8-23.4v-11.2h1.5v11.3c-0.8,9.6-8.7,18.6-21.6,24.6
							c-10.7,5.1-23.6,7.5-36.5,7.5C362.3,869.2,345.5,864.9,334,856.8z"/>
					</g>
					<g>
						<path class="st2" d="M334.2,847.5c-4.7-3.4-8.3-7.2-10.5-11.3l1.3-0.7c2.1,3.9,5.5,7.6,10,10.8c19.8,14.1,55.7,16.2,80.1,4.8
							c10.3-4.8,17.3-11.6,19.8-19.1c1.7-5.2,1.2-10.6-1.5-15.6l1.3-0.7c2.9,5.3,3.4,11.1,1.6,16.7c-2.6,7.9-9.9,15-20.6,20
							c-10.7,5.1-23.6,7.5-36.5,7.5C362.3,859.9,345.5,855.7,334.2,847.5z"/>
					</g>
				</g>
			</g>
			<g>
				<g>
					<g>
						<path class="st2" d="M347.6,868.8c-4-2.9-7.2-6.1-9.4-9.5l1.3-0.8c2.1,3.3,5.1,6.3,9,9.1c19.8,14.1,55.7,16.2,80.1,4.8
							c12.3-5.8,19.9-14.3,20.7-23.4c0-0.1,0.1-0.2,0.1-0.3V836h1.5v13c0,0.2,0,0.3-0.1,0.4c-1,9.5-8.8,18.3-21.5,24.3
							c-10.7,5.1-23.6,7.5-36.5,7.5C375.9,881.2,359.1,877,347.6,868.8z"/>
					</g>
					<g>
						<path class="st2" d="M366.9,868.5l0.4-1.4c20,5.7,44.1,4.2,61.4-3.9c12.1-5.7,19.4-13.7,20.6-22.6c0.9-7.2-2.3-14.4-9.3-20.4
							l1-1.1c7.4,6.3,10.9,14,9.8,21.7c-1.3,9.4-9,17.8-21.5,23.7c-10.5,5-23.5,7.5-36.6,7.5C383.9,872,375,870.8,366.9,868.5z"/>
					</g>
				</g>
			</g>
			<g>
				<g>
					<g>
						<path class="st2" d="M334,886.9c-9.5-6.7-14.1-15.3-13-24v-8.8h1.5v8.9c-1,8.2,3.4,16.3,12.4,22.7
							c19.8,14.1,55.7,16.2,80.1,4.8c11.4-5.4,18.7-13,20.4-21.4l1.5,0.3c-1.8,8.9-9.3,16.8-21.2,22.4c-10.7,5.1-23.6,7.5-36.5,7.5
							C362.3,899.3,345.5,895,334,886.9z"/>
					</g>
					<g>
						<path class="st2" d="M334.2,877.6c-12.8-9-16.6-21.1-10.2-32.3l1.3,0.7c-6,10.5-2.4,21.8,9.7,30.4
							c19.8,14.1,55.7,16.2,80.1,4.8c4.4-2.1,8.8-5,12.3-8.2l1,1.1c-3.6,3.2-8.1,6.2-12.7,8.4c-10.7,5.1-23.6,7.5-36.5,7.5
							C362.3,890,345.5,885.8,334.2,877.6z"/>
					</g>
				</g>
			</g>
		</g>
		<g>
			<rect x="480.6" y="651.1" class="st2" width="17.8" height="10.3"/>
		</g>
		<g>
			<path class="st3" d="M411.8,221.5l-9.7-9.7c-0.5-0.5-0.5-1.3,0-1.8l9.7-9.7c0.3-0.3,0.6-0.4,0.9-0.4s0.7,0.2,0.9,0.4l9.7,9.7
				c0.5,0.5,0.5,1.3,0,1.8l-9.7,9.7c-0.3,0.3-0.6,0.4-0.9,0.4S412.1,221.7,411.8,221.5z M412.8,203l-7.9,7.9l7.9,7.9l7.9-7.9
				L412.8,203z"/>
		</g>
		<g>
			<g>
				<rect x="313.9" y="285.5" class="st3" width="2.5" height="10"/>
			</g>
			<g>
				<rect x="313.9" y="306" class="st3" width="2.5" height="10"/>
			</g>
			<g>
				<rect x="320.4" y="299.5" class="st3" width="10" height="2.5"/>
			</g>
			<g>
				<rect x="299.9" y="299.5" class="st3" width="10" height="2.5"/>
			</g>
		</g>
		<g>
			<path class="st3" d="M537.2,422.6h1.5v3h-1.5V422.6z M537.2,416.6h1.5v3h-1.5V416.6z M537.2,410.6h1.5v3h-1.5V410.6z
				 M537.2,404.6h1.5v3h-1.5V404.6z M537.2,398.6h1.5v3h-1.5V398.6z M537.2,392.6h1.5v3h-1.5V392.6z M537.2,386.6h1.5v3h-1.5V386.6z
				 M537.2,380.6h1.5v3h-1.5V380.6z M537.2,374.6h1.5v3h-1.5V374.6z M537.2,368.6h1.5v3h-1.5V368.6z M537.2,362.6h1.5v3h-1.5V362.6z
				 M537.2,356.6h1.5v3h-1.5V356.6z M537.2,350.6h1.5v3h-1.5V350.6z M537.2,344.6h1.5v3h-1.5V344.6z M537.2,338.6h1.5v3h-1.5V338.6z
				 M537.2,332.6h1.5v3h-1.5V332.6z M537.2,326.6h1.5v3h-1.5V326.6z M537.2,320.6h1.5v3h-1.5V320.6z M537.2,314.6h1.5v3h-1.5V314.6z
				 M537.2,308.6h1.5v3h-1.5V308.6z M537.2,302.6h1.5v3h-1.5V302.6z M537.2,296.6h1.5v3h-1.5V296.6z M537.2,290.6h1.5v3h-1.5V290.6z
				 M537.2,284.6h1.5v3h-1.5V284.6z"/>
		</g>
		<g>
			<polygon class="st3" points="538,264.7 547,283.4 529,273.1 			"/>
		</g>
		<g>
			<path class="st2" d="M484.1,278.1h1.5v3h-1.5V278.1z M484.1,272.1h1.5v3h-1.5V272.1z M484.1,266.1h1.5v3h-1.5V266.1z
				 M484.1,260.1h1.5v3h-1.5V260.1z M484.1,254.1h1.5v3h-1.5V254.1z M484.1,248.1h1.5v3h-1.5V248.1z M484.1,242.1h1.5v3h-1.5V242.1z
				 M484.1,236.1h1.5v3h-1.5V236.1z M484.1,230.1h1.5v3h-1.5V230.1z M484.1,224.1h1.5v3h-1.5V224.1z M484.1,218.1h1.5v3h-1.5V218.1z
				 M484.1,212.1h1.5v3h-1.5V212.1z M484.1,206.1h1.5v3h-1.5V206.1z M484.1,200.1h1.5v3h-1.5V200.1z M484.1,194.1h1.5v3h-1.5V194.1z
				 M484.1,188.1h1.5v3h-1.5V188.1z M484.1,182.1h1.5v3h-1.5V182.1z M484.1,176.1h1.5v3h-1.5V176.1z M484.1,170.1h1.5v3h-1.5V170.1z
				 M484.1,164.1h1.5v3h-1.5V164.1z M484.1,158.1h1.5v3h-1.5V158.1z"/>
		</g>
		<g>
			<polygon class="st2" points="484.8,138.2 493.8,157 475.9,146.6 			"/>
		</g>
		<g>
			<path class="st2" d="M500.8,648.3l2.6-1.5l0.7,1.3l-2.6,1.5L500.8,648.3z M506,645.4l2.6-1.5l0.7,1.3l-2.6,1.5L506,645.4z
				 M511.2,642.4l2.6-1.5l0.7,1.3l-2.6,1.5L511.2,642.4z M516.4,639.5l2.6-1.5l0.7,1.3l-2.6,1.5L516.4,639.5z M521.7,636.5l2.6-1.5
				l0.7,1.3l-2.6,1.5L521.7,636.5z M526.9,633.6l2.6-1.5l0.7,1.3l-2.6,1.5L526.9,633.6z M532.1,630.6l2.6-1.5l0.7,1.3l-2.6,1.5
				L532.1,630.6z M537.3,627.6l2.6-1.5l0.7,1.3l-2.6,1.5L537.3,627.6z M542.5,624.7l2.6-1.5l0.7,1.3l-2.6,1.5L542.5,624.7z
				 M547.8,621.7l2.6-1.5l0.7,1.3l-2.6,1.5L547.8,621.7z M553,618.8l2.6-1.5l0.7,1.3l-2.6,1.5L553,618.8z M558.2,615.8l2.6-1.5
				l0.7,1.3l-2.6,1.5L558.2,615.8z"/>
		</g>
		<g>
			<path class="st2" d="M445.4,673.1l0.1-1.5c1,0,2,0.1,3,0.1v1.5C447.5,673.2,446.5,673.2,445.4,673.1z M451.5,671.7
				c1,0,2-0.1,3-0.2l0.1,1.5c-1,0.1-2,0.2-3,0.2L451.5,671.7z M439.5,672.3l0.3-1.5c0.9,0.2,1.9,0.4,2.9,0.5l-0.2,1.5
				C441.5,672.6,440.5,672.4,439.5,672.3z M457.4,671.2c1-0.1,1.9-0.3,2.9-0.5l0.3,1.5c-1,0.2-2,0.4-3,0.5L457.4,671.2z
				 M433.6,670.7l0.5-1.4c0.9,0.3,1.8,0.6,2.8,0.8l-0.4,1.5C435.5,671.3,434.5,671.1,433.6,670.7z M463.2,669.9
				c0.9-0.2,1.9-0.5,2.8-0.8l0.5,1.4c-0.9,0.3-1.9,0.6-2.9,0.9L463.2,669.9z M427.9,668.7l0.6-1.4c0.9,0.4,1.8,0.8,2.7,1.1l-0.5,1.4
				C429.8,669.4,428.8,669,427.9,668.7z M468.9,668.1c0.9-0.4,1.8-0.8,2.7-1.2l0.6,1.4c-0.9,0.4-1.9,0.8-2.8,1.2L468.9,668.1z
				 M422.5,665.9l0.8-1.3c0.9,0.5,1.7,0.9,2.6,1.4l-0.7,1.3C424.3,666.8,423.4,666.3,422.5,665.9z M474.1,665.7
				c0.9-0.5,1.8-1,2.6-1.5l0.8,1.3c-0.8,0.5-1.7,1-2.6,1.5L474.1,665.7z M417.3,662.6l0.8-1.3l2.6,1.6l-0.8,1.3L417.3,662.6z
				 M412.2,659.5l0.8-1.3l2.6,1.6l-0.8,1.3L412.2,659.5z M407.1,656.3l0.8-1.3l2.6,1.6l-0.8,1.3L407.1,656.3z M402,653.2l0.8-1.3
				l2.6,1.6l-0.8,1.3L402,653.2z M396.9,650l0.8-1.3l2.6,1.6l-0.8,1.3L396.9,650z M391.8,646.9l0.8-1.3l2.6,1.6l-0.8,1.3
				L391.8,646.9z M386.7,643.7l0.8-1.3l2.6,1.6l-0.8,1.3L386.7,643.7z M381.6,640.6l0.8-1.3l2.6,1.6l-0.8,1.3L381.6,640.6z
				 M376.5,637.4l0.8-1.3l2.6,1.6l-0.8,1.3L376.5,637.4z M371.4,634.3l0.8-1.3l2.6,1.6l-0.8,1.3L371.4,634.3z M366.3,631.1l0.8-1.3
				l2.6,1.6l-0.8,1.3L366.3,631.1z M361.2,628l0.8-1.3l2.6,1.6l-0.8,1.3L361.2,628z M356.1,624.8l0.8-1.3l2.6,1.6l-0.8,1.3
				L356.1,624.8z M351,621.7l0.8-1.3l2.6,1.6l-0.8,1.3L351,621.7z"/>
		</g>
		<g>
			<path class="st2" d="M500.2,907v-1.5c0.9,0,1.9,0,2.9,0h0.1l-0.1,1.5C502.1,907,501.1,907,500.2,907z M506.1,905.4
				c1,0,2-0.1,3-0.1l0.1,1.5c-1,0-2,0.1-3,0.1L506.1,905.4z M494.1,906.6l0.1-1.5c1,0.1,2,0.2,3,0.2l-0.1,1.5
				C496.1,906.8,495.1,906.7,494.1,906.6z M512.1,905.1c1-0.1,2-0.2,3-0.3l0.1,1.5c-1,0.1-2,0.2-3,0.3L512.1,905.1z M488,906.1
				l0.2-1.5c1,0.1,2,0.2,3,0.3l-0.1,1.5C490.1,906.3,489.1,906.2,488,906.1z M518,904.5c1-0.1,2-0.3,3-0.4l0.2,1.5
				c-1,0.1-2,0.3-3,0.4L518,904.5z M482.1,905.1l0.3-1.5c0.9,0.2,1.9,0.4,2.9,0.5l-0.2,1.5C484.1,905.5,483.1,905.3,482.1,905.1z
				 M524,903.6c1-0.2,1.9-0.4,2.9-0.6l0.3,1.5c-1,0.2-2,0.4-3,0.6L524,903.6z M476.2,904l0.3-1.5c1,0.2,1.9,0.4,2.9,0.6l-0.3,1.5
				C478.1,904.4,477.2,904.1,476.2,904z M529.7,902.5c1-0.2,1.9-0.4,2.9-0.7l0.4,1.4c-0.9,0.2-1.9,0.5-2.9,0.7L529.7,902.5z
				 M470.4,902.4l0.4-1.4c1,0.3,1.9,0.5,2.9,0.8l-0.4,1.4C472.3,902.9,471.3,902.6,470.4,902.4z M535.5,900.9
				c0.9-0.3,1.9-0.6,2.8-0.9l0.5,1.4c-1,0.3-1.9,0.6-2.9,0.9L535.5,900.9z M464.7,900.4l0.5-1.4c0.9,0.4,1.9,0.7,2.8,1l-0.5,1.4
				C466.5,901.1,465.5,900.8,464.7,900.4z M541,899c1-0.4,1.9-0.7,2.8-1.1l0.6,1.4c-0.9,0.4-1.8,0.7-2.8,1.1L541,899z M459.1,898.1
				l0.6-1.4c0.9,0.4,1.8,0.8,2.7,1.2l-0.6,1.4C460.9,898.9,459.9,898.5,459.1,898.1z M546.5,896.8c0.9-0.4,1.8-0.9,2.7-1.3l0.7,1.3
				c-0.9,0.4-1.8,0.9-2.7,1.3L546.5,896.8z M453.7,895.4l0.7-1.3c0.8,0.5,1.7,0.9,2.6,1.4l-0.7,1.3
				C455.4,896.4,454.5,895.9,453.7,895.4z M551.8,894l2.6-1.5l0.8,1.3l-2.6,1.5L551.8,894z M448.4,892.4l0.8-1.3l2.6,1.5l-0.8,1.3
				L448.4,892.4z M557,891l2.6-1.5l0.8,1.3l-2.6,1.5L557,891z M443.2,889.3l0.8-1.3l2.6,1.5l-0.8,1.3L443.2,889.3z M562.2,888
				l2.6-1.5l0.8,1.3l-2.6,1.5L562.2,888z M438.1,886.3l0.8-1.3l2.6,1.5l-0.8,1.3L438.1,886.3z M567.4,885l2.6-1.5l0.8,1.3l-2.6,1.5
				L567.4,885z M434.1,883.8l0.8-1.3l1.4,0.9l-0.8,1.3L434.1,883.8z M572.6,882l2.6-1.5l0.8,1.3l-2.6,1.5L572.6,882z M577.8,879
				l2.6-1.5l0.8,1.3l-2.6,1.5L577.8,879z M583,876l2.6-1.5l0.8,1.3l-2.6,1.5L583,876z M588.2,873l2.6-1.5l0.8,1.3l-2.6,1.5
				L588.2,873z M593.4,870l2.6-1.5l0.8,1.3l-2.6,1.5L593.4,870z M598.6,867l2.6-1.5l0.8,1.3l-2.6,1.5L598.6,867z M603.8,864l2.6-1.5
				l0.8,1.3l-2.6,1.5L603.8,864z M609,861l2.6-1.5l0.8,1.3l-2.6,1.5L609,861z"/>
		</g>
	</g>
</g>
</svg>
